<?xml version="1.0" encoding="UTF-8" standalone="no"?>
<svg
   xmlns:dc="http://purl.org/dc/elements/1.1/"
   xmlns:cc="http://creativecommons.org/ns#"
   xmlns:rdf="http://www.w3.org/1999/02/22-rdf-syntax-ns#"
   xmlns:svg="http://www.w3.org/2000/svg"
   xmlns="http://www.w3.org/2000/svg"
   xmlns:sodipodi="http://sodipodi.sourceforge.net/DTD/sodipodi-0.dtd"
   xmlns:inkscape="http://www.inkscape.org/namespaces/inkscape"
   width="73.139"
   height="93.08"
   viewBox="0 0 73.139 93.08"
   version="1.1"
   id="svg10"
   sodipodi:docname="debianicon.svg"
   inkscape:version="0.92.3 (2405546, 2018-03-11)">
  <metadata
     id="metadata14">
    <rdf:RDF>
      <cc:Work
         rdf:about="">
        <dc:format>image/svg+xml</dc:format>
        <dc:type
           rdf:resource="http://purl.org/dc/dcmitype/StillImage" />
      </cc:Work>
    </rdf:RDF>
  </metadata>
  <sodipodi:namedview
     pagecolor="#ffffff"
     bordercolor="#666666"
     borderopacity="1"
     objecttolerance="10"
     gridtolerance="10"
     guidetolerance="10"
     inkscape:pageopacity="0"
     inkscape:pageshadow="2"
     inkscape:window-width="751"
     inkscape:window-height="480"
     id="namedview12"
     showgrid="false"
     inkscape:zoom="2.5354533"
     inkscape:cx="36.5695"
     inkscape:cy="46.540001"
     inkscape:window-x="0"
     inkscape:window-y="0"
     inkscape:window-maximized="0"
     inkscape:current-layer="svg10" />
  <defs
     id="defs4">
    <style
       id="style2">.a{fill:#333333;}</style>
  </defs>
  <g
     transform="translate(-8.692)"
     id="g8"
     style="fill:#35153a;fill-opacity:1">
    <path
       class="a"
       d="M116.471,348.874a.492.492,0,1,1,.492.492A.494.494,0,0,1,116.471,348.874Zm-12.3-3.313c-34.547-16.5-37.153-69.446-4.237-86.1,11.2-5.667,29.775-3.535,41.443,4.757,5.518,3.921,11.286,15.288,6.9,13.607-1.323-.508-1.49-.26-.849,1.26a25.506,25.506,0,0,1,1.159,5.829,30.206,30.206,0,0,0,.852,5.256c.27.726-.123,2.719-.873,4.428s-1.913,4.547-2.583,6.306-1.608,3.2-2.083,3.2-.865.626-.865,1.392c0,4.93-15.4,11.276-23.291,9.6-4.211-.894-4.536-.848-2.844.4,2.851,2.1.535,1.688-3.14-.553-3.6-2.2-4.393-3.672-.994-1.853,1.371.734.462-.757-2.407-3.949-9.669-10.755-5.172-26.6,8.051-28.378,3.265-.438,9.864,1.724,9.864,3.232,0,.275-.857.043-1.9-.517-13.937-7.459-25.032,13.942-12.906,24.9,16.08,14.528,37.7-9.217,27.176-29.851-9.557-18.743-29.6-19.584-49.864-2.093-9.537,8.23-12.565,34.627-4.656,40.589a6.081,6.081,0,0,1,2.4,3.536c.456,8.138,11.475,20.473,23.516,26.323,2.891,1.4,2.9,1.435.492,1.472-1.353.021-5.117-1.23-8.364-2.781ZM120.653,317.2a8.076,8.076,0,0,1,3.444,0c.947.248.172.45-1.722.45s-2.669-.2-1.722-.45Zm-15.99-8.67a.492.492,0,1,1,.492.492A.493.493,0,0,1,104.663,308.529Zm17.528-4.117a1.979,1.979,0,0,1,1.886.078c.327.327-.254.559-1.291.517C121.639,304.96,121.406,304.727,122.191,304.412Zm7.073-2.772a.492.492,0,1,1,.492.492A.494.494,0,0,1,129.264,301.64Zm2.952-8.364c0-.721.3-1.017.656-.656a.931.931,0,0,1,0,1.312C132.511,294.293,132.216,294,132.216,293.276ZM78.094,276.055a.492.492,0,1,1,.492.492A.494.494,0,0,1,78.094,276.055Z"
       transform="translate(-67.996 -256.287)"
       id="path6"
       style="fill:#35153a;fill-opacity:1" />
  </g>
</svg>
