<?xml version="1.0" encoding="UTF-8" standalone="no"?>
<svg
   xmlns:dc="http://purl.org/dc/elements/1.1/"
   xmlns:cc="http://creativecommons.org/ns#"
   xmlns:rdf="http://www.w3.org/1999/02/22-rdf-syntax-ns#"
   xmlns:svg="http://www.w3.org/2000/svg"
   xmlns="http://www.w3.org/2000/svg"
   xmlns:sodipodi="http://sodipodi.sourceforge.net/DTD/sodipodi-0.dtd"
   xmlns:inkscape="http://www.inkscape.org/namespaces/inkscape"
   width="90.106"
   height="75.322"
   viewBox="0 0 90.106 75.322"
   version="1.1"
   id="svg14"
   sodipodi:docname="macosicon.svg"
   inkscape:version="0.92.3 (2405546, 2018-03-11)">
  <metadata
     id="metadata18">
    <rdf:RDF>
      <cc:Work
         rdf:about="">
        <dc:format>image/svg+xml</dc:format>
        <dc:type
           rdf:resource="http://purl.org/dc/dcmitype/StillImage" />
      </cc:Work>
    </rdf:RDF>
  </metadata>
  <sodipodi:namedview
     pagecolor="#ffffff"
     bordercolor="#666666"
     borderopacity="1"
     objecttolerance="10"
     gridtolerance="10"
     guidetolerance="10"
     inkscape:pageopacity="0"
     inkscape:pageshadow="2"
     inkscape:window-width="751"
     inkscape:window-height="480"
     id="namedview16"
     showgrid="false"
     inkscape:zoom="3.1332148"
     inkscape:cx="45.053001"
     inkscape:cy="37.660999"
     inkscape:window-x="0"
     inkscape:window-y="0"
     inkscape:window-maximized="0"
     inkscape:current-layer="svg14" />
  <defs
     id="defs4">
    <style
       id="style2">.a{fill:#333333;}</style>
  </defs>
  <path
     class="a"
     d="M 7.742,0 A 7.725,7.725 0 0 0 0.003,7.74 V 67.576 A 7.727,7.727 0 0 0 7.746,75.32 H 44.88 C 44.03,72.204 42.257,68.141 41.818,61.898 A 53.492,53.492 0 0 1 24.182,57.06 3.7,3.7 0 0 1 27.167,50.292 c 5.724,2.52 10.326,4.009 14.76,4.462 A 63.474,63.474 0 0 1 44.14,43.29 H 34.017 C 32.641,32.855 41.001,7.709 45.332,-0.002 Z m 74.6,0 1.128,1.583 3.871,13.9 0.881,15.664 1.884,7.171 V 7.74 A 7.727,7.727 0 0 0 82.361,-0.003 Z M 25.979,17.36 h 0.062 a 3.313,3.313 0 0 1 3.321,3.319 v 5.03 a 3.315,3.315 0 0 1 -3.321,3.321 h -0.062 a 3.315,3.315 0 0 1 -3.321,-3.321 v -5.03 a 3.313,3.313 0 0 1 3.321,-3.32 z"
     id="path6"
     inkscape:connector-curvature="0"
     style="fill:#35153a;fill-opacity:1" />
  <path
     class="a"
     d="M 53.55,0 C 49.114,9.569 43.88,22.57 41.707,35.373 H 54.29 A 62.545,62.545 0 0 0 49.717,54.465 55.162,55.162 0 0 0 62.859,50.04 3.7,3.7 0 1 1 65.91,56.772 56.655,56.655 0 0 1 49.738,61.697 38.316,38.316 0 0 0 53.18,75.32 h 29.179 a 7.729,7.729 0 0 0 7.745,-7.745 V 7.74 a 7.727,7.727 0 0 0 -7.745,-7.743 z m 11.145,17.36 h 0.062 a 3.313,3.313 0 0 1 3.321,3.319 v 5.03 a 3.315,3.315 0 0 1 -3.321,3.321 h -0.062 a 3.313,3.313 0 0 1 -3.319,-3.321 v -5.03 a 3.311,3.311 0 0 1 3.319,-3.32 z"
     id="path8"
     inkscape:connector-curvature="0"
     style="fill:#62276b;fill-opacity:1" />
</svg>
