<?xml version="1.0" encoding="UTF-8" standalone="no"?>
<svg
   xmlns:dc="http://purl.org/dc/elements/1.1/"
   xmlns:cc="http://creativecommons.org/ns#"
   xmlns:rdf="http://www.w3.org/1999/02/22-rdf-syntax-ns#"
   xmlns:svg="http://www.w3.org/2000/svg"
   xmlns="http://www.w3.org/2000/svg"
   xmlns:sodipodi="http://sodipodi.sourceforge.net/DTD/sodipodi-0.dtd"
   xmlns:inkscape="http://www.inkscape.org/namespaces/inkscape"
   width="83.87"
   height="86.305"
   viewBox="0 0 83.87 86.305"
   version="1.1"
   id="svg20"
   sodipodi:docname="ubuntuicon.svg"
   inkscape:version="0.92.3 (2405546, 2018-03-11)">
  <metadata
     id="metadata24">
    <rdf:RDF>
      <cc:Work
         rdf:about="">
        <dc:format>image/svg+xml</dc:format>
        <dc:type
           rdf:resource="http://purl.org/dc/dcmitype/StillImage" />
      </cc:Work>
    </rdf:RDF>
  </metadata>
  <sodipodi:namedview
     pagecolor="#ffffff"
     bordercolor="#666666"
     borderopacity="1"
     objecttolerance="10"
     gridtolerance="10"
     guidetolerance="10"
     inkscape:pageopacity="0"
     inkscape:pageshadow="2"
     inkscape:window-width="751"
     inkscape:window-height="480"
     id="namedview22"
     showgrid="false"
     inkscape:zoom="2.7344881"
     inkscape:cx="41.935001"
     inkscape:cy="43.1525"
     inkscape:window-x="0"
     inkscape:window-y="0"
     inkscape:window-maximized="0"
     inkscape:current-layer="svg20" />
  <defs
     id="defs4">
    <style
       id="style2">.a{fill:#333333;}</style>
  </defs>
  <path
     style="fill:#35153a;fill-opacity:1"
     inkscape:connector-curvature="0"
     id="path6"
     d="M 48.898,7.066 A 35.1,35.1 0 0 0 33.817,10.52 l 7.117,12.328 A 20.841,20.841 0 0 1 69.596,39.4 H 83.853 A 35.092,35.092 0 0 0 75.57,19.439 12.753,12.753 0 0 1 55.617,8.9 q 0,-0.582 0.058,-1.163 a 35.093,35.093 0 0 0 -6.772,-0.67 z m -19.881,6.177 a 35.094,35.094 0 0 0 -13.7,18.849 12.754,12.754 0 0 1 0.546,21.728 35.091,35.091 0 0 0 13.177,17.224 l 7.124,-12.339 a 20.857,20.857 0 0 1 -0.008,-33.1 z m 40.58,31.669 A 20.861,20.861 0 0 1 40.927,61.477 L 33.809,73.806 A 34.569,34.569 0 0 0 56.283,76.445 12.727,12.727 0 0 1 74.63,65.959 35.094,35.094 0 0 0 83.87,44.912 Z"
     class="a" />
  <circle
     style="fill:#62276b;fill-opacity:1"
     r="8.8979998"
     id="ellipse8"
     cy="8.8979998"
     cx="68.380997"
     class="a" />
  <circle
     style="fill:#62276b;fill-opacity:1"
     r="8.8979998"
     id="ellipse10"
     cy="43.123001"
     cx="8.8979998"
     class="a" />
  <circle
     style="fill:#62276b;fill-opacity:1"
     r="8.8979998"
     id="ellipse12"
     cy="77.404999"
     cx="69.003998"
     class="a" />
</svg>
