<svg xmlns="http://www.w3.org/2000/svg" viewBox="0 0 202.43 28.24"><defs><style>.cls-1,.cls-5{isolation:isolate;}.cls-2{fill:#ca312c;}.cls-2,.cls-3,.cls-4{fill-rule:evenodd;}.cls-3{fill:#91b949;}.cls-4{fill:#333;}.cls-5{opacity:0.5;}</style></defs><title>Asset 1</title><g id="Layer_2" data-name="Layer 2"><g id="Shape_6_copy_12" data-name="Shape 6 copy 12" class="cls-1"><g id="Shape_6_copy_12-2" data-name="Shape 6 copy 12"><path class="cls-2" d="M26.38,9.72a4.33,4.33,0,0,0-1.06-1.8c-2.21-2.46-4.24-3.39-7.6-1.83h-.17a2.89,2.89,0,0,0-2.68,2.18c-1.24,3.57-2.57,7.1-3.87,10.64h0c-.19.26-.38.52-.58.77-2.38,1.75-4.68,3.38-8,2-1.21-.49-3.18-.34-2.15,2.13a1.32,1.32,0,0,0,.5.83,4,4,0,0,0,1.09.83c4.63,3,9.7,3.66,14.59,1.3,5.55-2.67,9.59-6.89,10-13.51A9.76,9.76,0,0,0,26.38,9.72Z"/></g></g><g id="Shape_7_copy_12" data-name="Shape 7 copy 12" class="cls-1"><g id="Shape_7_copy_12-2" data-name="Shape 7 copy 12"><path class="cls-3" d="M24.4,6.23a17.67,17.67,0,0,1,.3-2.75c.28-2.38-1-3.41-2-3.47a3.37,3.37,0,0,0-2.59,1A.93.93,0,0,0,20,2.27c.47.49.88.48,1.15-.54.45-1.65,2.37,0,2.31.84-.1,1.68-1.31,2.31-2.37,3S19,6.41,17.27,7a.57.57,0,0,0-.06,1,4.27,4.27,0,0,0,1.33,0c1.41-.23,1.84.19,2.28,1.58a4.49,4.49,0,0,1,2.74-.38c.93.34.94.91,1.26,1.31a.4.4,0,0,0,.53-.4A7.23,7.23,0,0,1,24.4,6.23Z"/></g></g><g id="coinpaprika_copy_7" data-name="coinpaprika copy 7" class="cls-1"><g id="coinpaprika_copy_7-2" data-name="coinpaprika copy 7"><path class="cls-4" d="M42.09,20.54a7.05,7.05,0,0,1-.8.15,6.76,6.76,0,0,1-.76,0,3.65,3.65,0,0,1-1.35-.24,3.07,3.07,0,0,1-1-.7,3.43,3.43,0,0,1-.67-1.11,4.55,4.55,0,0,1-.23-1.48,4.46,4.46,0,0,1,.22-1.45,3.14,3.14,0,0,1,.63-1.12,2.82,2.82,0,0,1,1-.72,3.36,3.36,0,0,1,1.38-.26,6.76,6.76,0,0,1,1.55.19,7.1,7.1,0,0,1,1.51.54V11.72a10.46,10.46,0,0,0-1.37-.3,12.2,12.2,0,0,0-1.87-.12,6.76,6.76,0,0,0-2.48.43,5.3,5.3,0,0,0-3.12,3.12,6.85,6.85,0,0,0-.44,2.49,7.38,7.38,0,0,0,.4,2.51,4.73,4.73,0,0,0,3,2.92,7.4,7.4,0,0,0,2.44.37A9.71,9.71,0,0,0,41.93,23a8.08,8.08,0,0,0,1.68-.48V20.05a6.93,6.93,0,0,1-.73.27C42.62,20.4,42.36,20.48,42.09,20.54Zm13.83-7.81a4.43,4.43,0,0,0-1.7-1.12,6.51,6.51,0,0,0-2.29-.38,6.14,6.14,0,0,0-2.37.44,4.92,4.92,0,0,0-1.77,1.22,5.33,5.33,0,0,0-1.12,1.91,7.46,7.46,0,0,0-.39,2.48,8.36,8.36,0,0,0,.37,2.58,4.82,4.82,0,0,0,1.08,1.85,4.32,4.32,0,0,0,1.7,1.12,6.73,6.73,0,0,0,2.28.37,6.21,6.21,0,0,0,2.39-.44,5,5,0,0,0,1.77-1.24A5.47,5.47,0,0,0,57,19.59a7.44,7.44,0,0,0,.39-2.47A8.14,8.14,0,0,0,57,14.58,4.82,4.82,0,0,0,55.92,12.73Zm-1.59,5.89a3.52,3.52,0,0,1-.47,1.15,2.16,2.16,0,0,1-.82.77,2.42,2.42,0,0,1-1.2.28,2.37,2.37,0,0,1-2-.91,4.3,4.3,0,0,1-.72-2.7,6.26,6.26,0,0,1,.15-1.4,3.27,3.27,0,0,1,.48-1.14,2.47,2.47,0,0,1,.83-.78,2.6,2.6,0,0,1,1.23-.28,2.32,2.32,0,0,1,2,.9,4.43,4.43,0,0,1,.67,2.68A6,6,0,0,1,54.33,18.62Zm11.92-7.14h-6v2.14h3.24V20.8H59.8v2.14h9.76V20.8H66.25ZM63.4,9.61A1.75,1.75,0,0,0,64,10a1.9,1.9,0,0,0,1.43,0A1.75,1.75,0,0,0,66,9.61,1.7,1.7,0,0,0,66.34,9a1.8,1.8,0,0,0,0-1.39A1.85,1.85,0,0,0,66,7.07a1.92,1.92,0,0,0-.57-.39,1.9,1.9,0,0,0-1.43,0,1.92,1.92,0,0,0-.57.39,1.72,1.72,0,0,0-.38.58A1.8,1.8,0,0,0,63,9,1.59,1.59,0,0,0,63.4,9.61Zm17.74,2.72a2.94,2.94,0,0,0-1.09-.81,3.85,3.85,0,0,0-1.54-.29,4.45,4.45,0,0,0-1.14.14,3.89,3.89,0,0,0-.94.39,4.06,4.06,0,0,0-.82.61,9.52,9.52,0,0,0-.73.8l-.07-1.69H72.43V22.94h2.76V15.69a9.91,9.91,0,0,1,1.34-1.54,2,2,0,0,1,1.34-.56c.93,0,1.4.63,1.4,1.88v7.47H82V15.25a5.75,5.75,0,0,0-.22-1.66A3.6,3.6,0,0,0,81.14,12.33Zm13.2.46A3.72,3.72,0,0,0,93,11.64a3.92,3.92,0,0,0-1.81-.41,4.45,4.45,0,0,0-1.14.14,4,4,0,0,0-.95.39,4.3,4.3,0,0,0-.81.61,8.07,8.07,0,0,0-.73.8l-.07-1.69H85.13V27.41h2.75V22.94a5.72,5.72,0,0,0,.78.14,6.22,6.22,0,0,0,.86.06,7.17,7.17,0,0,0,2.36-.37,5,5,0,0,0,1.87-1.12A5.16,5.16,0,0,0,95,19.73,7.64,7.64,0,0,0,95.44,17a9.3,9.3,0,0,0-.28-2.4A5.54,5.54,0,0,0,94.34,12.79Zm-2,5.94a3.58,3.58,0,0,1-.58,1.21,2.65,2.65,0,0,1-.91.76,2.52,2.52,0,0,1-1.19.28,6.37,6.37,0,0,1-1-.08,4.29,4.29,0,0,1-.81-.21v-5a10.46,10.46,0,0,1,1.35-1.54,2,2,0,0,1,1.34-.56,1.6,1.6,0,0,1,1.46.82,3.53,3.53,0,0,1,.39,1.1,8.24,8.24,0,0,1,.13,1.61A5.77,5.77,0,0,1,92.35,18.73Zm13.87-6.53a4.17,4.17,0,0,0-1.51-.73,8.72,8.72,0,0,0-2.19-.24,11,11,0,0,0-2.24.22,10.77,10.77,0,0,0-1.9.54v2.2a10.1,10.1,0,0,1,1.92-.65,8.35,8.35,0,0,1,2-.23,3.71,3.71,0,0,1,1.08.13,1.91,1.91,0,0,1,.72.39,1.48,1.48,0,0,1,.4.6,2.47,2.47,0,0,1,.12.79v.69h-1.5a10.08,10.08,0,0,0-2.48.28,5.55,5.55,0,0,0-1.75.78,3.2,3.2,0,0,0-1,1.19,3.28,3.28,0,0,0-.35,1.5,4.44,4.44,0,0,0,.23,1.44,3.11,3.11,0,0,0,.69,1.12,3.33,3.33,0,0,0,1.11.72,4.34,4.34,0,0,0,1.55.26,5.78,5.78,0,0,0,1.22-.13,4.65,4.65,0,0,0,1-.37,4.32,4.32,0,0,0,.87-.56,8.29,8.29,0,0,0,.76-.7l.07,1.5h2.35V15.11a4.66,4.66,0,0,0-.28-1.7A3,3,0,0,0,106.22,12.2Zm-1.6,7.21a8.39,8.39,0,0,1-1.36,1.19,2.18,2.18,0,0,1-1.2.42,1.86,1.86,0,0,1-1.23-.37,1.29,1.29,0,0,1-.45-1.06,1.66,1.66,0,0,1,.14-.66,1.46,1.46,0,0,1,.45-.55,2.15,2.15,0,0,1,.79-.37,4.38,4.38,0,0,1,1.18-.14h1.68Zm15.12-6.62a3.67,3.67,0,0,0-1.33-1.15,3.88,3.88,0,0,0-1.8-.41,4.45,4.45,0,0,0-1.14.14,4,4,0,0,0-1,.39,4.71,4.71,0,0,0-.82.61,8,8,0,0,0-.72.8l-.07-1.69h-2.38V27.41h2.75V22.94a5.21,5.21,0,0,0,.78.14,6.11,6.11,0,0,0,.86.06,7.11,7.11,0,0,0,2.35-.37,5,5,0,0,0,1.88-1.12,5.27,5.27,0,0,0,1.24-1.92,7.41,7.41,0,0,0,.45-2.72,9.76,9.76,0,0,0-.28-2.4A5.75,5.75,0,0,0,119.74,12.79Zm-2,5.94a3.78,3.78,0,0,1-.58,1.21,2.68,2.68,0,0,1-.92.76,2.46,2.46,0,0,1-1.19.28,6.24,6.24,0,0,1-1-.08,4.29,4.29,0,0,1-.81-.21v-5a9.91,9.91,0,0,1,1.35-1.54,2,2,0,0,1,1.34-.56,1.6,1.6,0,0,1,1.46.82,3.53,3.53,0,0,1,.38,1.1,7.47,7.47,0,0,1,.14,1.61A6.17,6.17,0,0,1,117.75,18.73Zm14.75-6.31a2.84,2.84,0,0,0-1.12-.89,3.78,3.78,0,0,0-1.54-.3,4.81,4.81,0,0,0-1.17.14,3.72,3.72,0,0,0-1,.39,4.22,4.22,0,0,0-.79.6,4.51,4.51,0,0,0-.64.79l-.1-1.67h-2.49V22.94h2.82V15.69A7.19,7.19,0,0,1,127.94,14a2.09,2.09,0,0,1,1.25-.5,1.35,1.35,0,0,1,.62.14,1.11,1.11,0,0,1,.46.43,2,2,0,0,1,.27.74,4.58,4.58,0,0,1,.06,1.09h2.77a7.53,7.53,0,0,0-.19-2A3.85,3.85,0,0,0,132.5,12.42Zm9.94-.94h-6.05v2.14h3.23V20.8H136v2.14h9.76V20.8h-3.31Zm-2.85-1.87a1.75,1.75,0,0,0,.57.39,1.9,1.9,0,0,0,1.43,0,1.75,1.75,0,0,0,.57-.39,1.7,1.7,0,0,0,.37-.57,1.8,1.8,0,0,0,0-1.39,1.85,1.85,0,0,0-.37-.58,1.92,1.92,0,0,0-.57-.39,1.9,1.9,0,0,0-1.43,0,1.92,1.92,0,0,0-.57.39,1.72,1.72,0,0,0-.38.58,1.8,1.8,0,0,0,0,1.39A1.59,1.59,0,0,0,139.59,9.61Zm19.34,1.87h-3.44l-4,4.85V7h-2.75V22.94h2.75V17.21l4.23,5.73h3.6l-5-6.24Zm11.65,1.93a3,3,0,0,0-.87-1.21,4.17,4.17,0,0,0-1.51-.73,8.72,8.72,0,0,0-2.19-.24,10.81,10.81,0,0,0-2.23.22,10.3,10.3,0,0,0-1.9.54v2.2a9.78,9.78,0,0,1,1.91-.65,8.35,8.35,0,0,1,2-.23,3.71,3.71,0,0,1,1.08.13,1.91,1.91,0,0,1,.72.39,1.48,1.48,0,0,1,.4.6,2.47,2.47,0,0,1,.12.79v.69h-1.5a9.94,9.94,0,0,0-2.47.28,5.51,5.51,0,0,0-1.76.78,3.2,3.2,0,0,0-1,1.19,3.28,3.28,0,0,0-.35,1.5,4.18,4.18,0,0,0,.24,1.44,3,3,0,0,0,.68,1.12,3.33,3.33,0,0,0,1.11.72,4.34,4.34,0,0,0,1.55.26,5.78,5.78,0,0,0,1.22-.13,4.65,4.65,0,0,0,1-.37,4.32,4.32,0,0,0,.87-.56,7.16,7.16,0,0,0,.76-.7l.07,1.5h2.35V15.11A4.66,4.66,0,0,0,170.58,13.41Zm-2.47,6a8,8,0,0,1-1.36,1.19,2.18,2.18,0,0,1-1.2.42,1.86,1.86,0,0,1-1.23-.37,1.29,1.29,0,0,1-.45-1.06,1.66,1.66,0,0,1,.14-.66,1.56,1.56,0,0,1,.45-.55,2.15,2.15,0,0,1,.79-.37,4.38,4.38,0,0,1,1.18-.14h1.68Z"/></g></g><g id="beta" class="cls-5"><g id="beta-2" data-name="beta"><path class="cls-4" d="M182.46,17.68a1.89,1.89,0,0,0-.69-.6,2.23,2.23,0,0,0-2,0,2.52,2.52,0,0,0-.75.67l.06-1.17v-2h-1.43v8a7,7,0,0,0,1.07.26,7.5,7.5,0,0,0,1.21.1,4,4,0,0,0,1.22-.19,2.71,2.71,0,0,0,1-.59,2.65,2.65,0,0,0,.64-1,4,4,0,0,0,.23-1.42,5.31,5.31,0,0,0-.14-1.25A2.81,2.81,0,0,0,182.46,17.68Zm-1,3.08a1.69,1.69,0,0,1-.31.63,1.29,1.29,0,0,1-.47.4,1.41,1.41,0,0,1-.62.14,2.92,2.92,0,0,1-.51,0,2.74,2.74,0,0,1-.41-.1V19.18a4.75,4.75,0,0,1,.7-.79,1,1,0,0,1,.69-.3.93.93,0,0,1,.44.11.82.82,0,0,1,.32.32,1.89,1.89,0,0,1,.2.57,4.06,4.06,0,0,1,.07.84A3,3,0,0,1,181.43,20.76Zm7.36-3.15a2.3,2.3,0,0,0-.81-.54,2.83,2.83,0,0,0-1.12-.2,2.89,2.89,0,0,0-1.16.23,2.38,2.38,0,0,0-.88.66,3,3,0,0,0-.56,1,3.89,3.89,0,0,0-.2,1.32,3.64,3.64,0,0,0,.2,1.29,2.43,2.43,0,0,0,.57.93,2.51,2.51,0,0,0,.91.57,3.59,3.59,0,0,0,1.22.2l.56,0,.57-.07a4.85,4.85,0,0,0,.55-.09,3.66,3.66,0,0,0,.5-.12V21.66a8.67,8.67,0,0,1-1,.22,7.75,7.75,0,0,1-.93.06,2.07,2.07,0,0,1-.68-.1,1.4,1.4,0,0,1-.53-.31,1.27,1.27,0,0,1-.34-.5,1.85,1.85,0,0,1-.12-.69h3.91c0-.14,0-.29,0-.44s0-.28,0-.38a3.33,3.33,0,0,0-.17-1.07A2.38,2.38,0,0,0,188.79,17.61Zm-3.26,1.7a1.7,1.7,0,0,1,.41-1,1.3,1.3,0,0,1,1.35-.28.94.94,0,0,1,.37.25,1.15,1.15,0,0,1,.26.43,1.87,1.87,0,0,1,.09.61Zm7.94-4.22-1.47.38V17h-1.6v1.11H192V21a3.16,3.16,0,0,0,.13.93,1.57,1.57,0,0,0,.41.64,1.72,1.72,0,0,0,.71.37,3.7,3.7,0,0,0,1,.13A4.91,4.91,0,0,0,195,23a7.09,7.09,0,0,0,.78-.14V21.75a4.32,4.32,0,0,1-.61.13,3.82,3.82,0,0,1-.68.06,1,1,0,0,1-.79-.26,1.14,1.14,0,0,1-.23-.77v-2.8h2.31V17h-2.31ZM202.28,18a1.59,1.59,0,0,0-.45-.63A2.15,2.15,0,0,0,201,17a4.13,4.13,0,0,0-1.13-.13,6.36,6.36,0,0,0-1.17.11,5.48,5.48,0,0,0-1,.28V18.4a5.75,5.75,0,0,1,1-.33,4.55,4.55,0,0,1,1-.12,1.82,1.82,0,0,1,.56.07.82.82,0,0,1,.37.2.66.66,0,0,1,.21.31,1.07,1.07,0,0,1,.07.41v.36h-.78a5,5,0,0,0-1.29.15,2.72,2.72,0,0,0-.91.4,1.62,1.62,0,0,0-.55.62,1.69,1.69,0,0,0-.18.78,2.27,2.27,0,0,0,.12.75,1.54,1.54,0,0,0,.94.95,2.2,2.2,0,0,0,.8.14,3.22,3.22,0,0,0,.64-.07,2.76,2.76,0,0,0,.53-.19,2,2,0,0,0,.45-.29,4.61,4.61,0,0,0,.4-.37l0,.78h1.23V18.88A2.39,2.39,0,0,0,202.28,18ZM201,21.12a5.12,5.12,0,0,1-.71.62,1.17,1.17,0,0,1-.62.22,1,1,0,0,1-.64-.2.65.65,0,0,1-.24-.55.81.81,0,0,1,.08-.34.78.78,0,0,1,.23-.29,1.2,1.2,0,0,1,.41-.19,2.18,2.18,0,0,1,.61-.07H201Z"/></g></g></g></svg>