<?xml version="1.0" encoding="UTF-8" standalone="no"?>
<svg
   xmlns:dc="http://purl.org/dc/elements/1.1/"
   xmlns:cc="http://creativecommons.org/ns#"
   xmlns:rdf="http://www.w3.org/1999/02/22-rdf-syntax-ns#"
   xmlns:svg="http://www.w3.org/2000/svg"
   xmlns="http://www.w3.org/2000/svg"
   xmlns:sodipodi="http://sodipodi.sourceforge.net/DTD/sodipodi-0.dtd"
   xmlns:inkscape="http://www.inkscape.org/namespaces/inkscape"
   width="62px"
   height="60px"
   viewBox="0 0 62 60"
   version="1.1"
   id="svg12"
   sodipodi:docname="delta.svg"
   inkscape:version="0.92.3 (2405546, 2018-03-11)">
  <metadata
     id="metadata18">
    <rdf:RDF>
      <cc:Work
         rdf:about="">
        <dc:format>image/svg+xml</dc:format>
        <dc:type
           rdf:resource="http://purl.org/dc/dcmitype/StillImage" />
      </cc:Work>
    </rdf:RDF>
  </metadata>
  <defs
     id="defs16" />
  <sodipodi:namedview
     pagecolor="#ffffff"
     bordercolor="#666666"
     borderopacity="1"
     objecttolerance="10"
     gridtolerance="10"
     guidetolerance="10"
     inkscape:pageopacity="0"
     inkscape:pageshadow="2"
     inkscape:window-width="1038"
     inkscape:window-height="594"
     id="namedview14"
     showgrid="false"
     inkscape:zoom="1.9666667"
     inkscape:cx="-68.945687"
     inkscape:cy="34.64821"
     inkscape:window-x="0"
     inkscape:window-y="0"
     inkscape:window-maximized="0"
     inkscape:current-layer="svg12" />
  <!-- Generator: Sketch 52.1 (67048) - http://www.bohemiancoding.com/sketch -->
  <title
     id="title2">Group 4 Copy</title>
  <desc
     id="desc4">Created with Sketch.</desc>
  <g
     id="desktop---home-v2"
     stroke="none"
     stroke-width="1"
     fill="none"
     fill-rule="evenodd"
     style="fill:#333333">
    <g
       id="Home---Phone-devices-+-Direct-graphic"
       transform="translate(-54.000000, -24.000000)"
       fill="#FFFFFF"
       style="fill:#333333">
      <g
         id="topbar-fat"
         style="fill:#333333">
        <g
           id="Group-4-Copy"
           transform="translate(48.000000, 24.000000)"
           style="fill:#333333">
          <path
             d="M6.35451592,59.6883202 L6.35451592,49.2732909 C6.82721014,49.1314826 7.37868673,49.0684568 7.99318921,49.0684568 C9.11189886,49.0684568 9.89972255,49.3520733 10.4827121,49.8720369 C11.3020487,50.5810782 11.9165512,51.9518915 11.9165512,54.1735543 C11.9165512,56.6000513 11.3178052,57.9235951 10.6402768,58.6483929 C9.94699197,59.4362166 8.93857764,59.7986155 7.70957268,59.7986155 C7.22112199,59.7986155 6.71691482,59.7671025 6.35451592,59.6883202 Z M7.56776441,50.1241405 L7.56776441,58.7429317 C7.74108563,58.7744447 7.91440684,58.7744447 8.02470216,58.7744447 C9.36400244,58.7744447 10.6560333,57.8132998 10.6560333,54.2050672 C10.6560333,51.5264667 9.83669666,50.0611146 8.13499747,50.0611146 C7.94591979,50.0611146 7.72532915,50.0768711 7.56776441,50.1241405 Z M25.540027,53.6693471 L25.540027,54.6935179 L22.8771829,54.6935179 L22.8771829,58.6799058 L25.9024259,58.6799058 L25.9024259,59.7355896 L21.6639344,59.7355896 L21.6639344,49.1157262 L25.7133482,49.1157262 L25.7133482,50.1714099 L22.8771829,50.1714099 L22.8771829,53.6693471 L25.540027,53.6693471 Z M35.5395138,59.7355896 L35.5395138,49.1157262 L36.7527623,49.1157262 L36.7527623,58.7114188 L39.7464923,58.7114188 L39.7464923,59.7355896 L35.5395138,59.7355896 Z M49.4466061,59.7355896 L49.4466061,50.2029229 L47.5085599,50.2029229 L47.5085599,49.1157262 L52.5979009,49.1157262 L52.5979009,50.2029229 L50.6598546,50.2029229 L50.6598546,59.7355896 L49.4466061,59.7355896 Z M65.7014131,56.5527819 L63.3536985,56.5527819 L62.6446572,59.7355896 L61.4786781,59.7355896 L63.9051751,49.1157262 L65.2444753,49.1157262 L67.6079464,59.7355896 L66.4104544,59.7355896 L65.7014131,56.5527819 Z M63.5270197,55.5758805 L65.5438484,55.5758805 L64.9923718,52.8815234 C64.834807,52.1252127 64.6929988,51.2428502 64.566947,50.4550265 L64.5039211,50.4550265 C64.3778693,51.2586066 64.2203045,52.1724821 64.0784963,52.8815234 L63.5270197,55.5758805 Z"
             id="DELTA-Copy"
             style="fill:#333333" />
          <path
             d="M35.8016922,0 L59.669487,39.7175023 L11.9338974,39.7175023 L35.8016922,0 Z M17.5545733,36.5401021 L54.048811,36.5401021 L35.8016922,6.17575587 L17.5545733,36.5401021 Z"
             id="Combined-Shape-Copy"
             style="fill:#333333" />
        </g>
      </g>
    </g>
  </g>
</svg>
