<?xml version="1.0" encoding="UTF-8" standalone="no"?>
<svg
   xmlns:dc="http://purl.org/dc/elements/1.1/"
   xmlns:cc="http://creativecommons.org/ns#"
   xmlns:rdf="http://www.w3.org/1999/02/22-rdf-syntax-ns#"
   xmlns:svg="http://www.w3.org/2000/svg"
   xmlns="http://www.w3.org/2000/svg"
   xmlns:sodipodi="http://sodipodi.sourceforge.net/DTD/sodipodi-0.dtd"
   xmlns:inkscape="http://www.inkscape.org/namespaces/inkscape"
   width="3540.895"
   height="1935.9794"
   viewBox="0 0 3540.8949 1935.9794"
   version="1.1"
   id="svg20"
   sodipodi:docname="Colorstyle.svg"
   inkscape:version="0.92.3 (2405546, 2018-03-11)">
  <metadata
     id="metadata24">
    <rdf:RDF>
      <cc:Work
         rdf:about="">
        <dc:format>image/svg+xml</dc:format>
        <dc:type
           rdf:resource="http://purl.org/dc/dcmitype/StillImage" />
        <dc:title></dc:title>
      </cc:Work>
    </rdf:RDF>
  </metadata>
  <sodipodi:namedview
     pagecolor="#ffffff"
     bordercolor="#666666"
     borderopacity="1"
     objecttolerance="10"
     gridtolerance="10"
     guidetolerance="10"
     inkscape:pageopacity="0"
     inkscape:pageshadow="2"
     inkscape:window-width="1360"
     inkscape:window-height="705"
     id="namedview22"
     showgrid="false"
     inkscape:zoom="0.10034384"
     inkscape:cx="1277.514"
     inkscape:cy="582.88243"
     inkscape:window-x="-8"
     inkscape:window-y="-8"
     inkscape:window-maximized="1"
     inkscape:current-layer="svg20"
     fit-margin-top="0"
     fit-margin-left="0"
     fit-margin-right="0"
     fit-margin-bottom="0"
     inkscape:snap-smooth-nodes="true"
     inkscape:snap-intersection-paths="true"
     inkscape:object-paths="true"
     inkscape:snap-object-midpoints="false"
     inkscape:snap-center="false" />
  <defs
     id="defs4">
    <style
       id="style2">
      .cls-1 {
        font-size: 120px;
      }

      .cls-1, .cls-3, .cls-5 {
        font-family: FuturaBT-Medium, Futura Md BT;
        font-weight: 500;
      }

      .cls-2, .cls-5 {
        fill: #fff;
      }

      .cls-2, .cls-3 {
        stroke: #8b8b8b;
      }

      .cls-2 {
        stroke-width: 0.036px;
      }

      .cls-3, .cls-4 {
        fill: #ffca39;
      }

      .cls-3 {
        stroke-width: 0.036px;
        font-size: 125px;
      }

      .cls-4 {
        fill-rule: evenodd;
      }

      .cls-5 {
        font-size: 25px;
      }
    </style>
  </defs>
  <g
     style="fill:#333333;fill-opacity:1;stroke:#000000"
     transform="translate(-37.834342,1907.8403)"
     id="g912">
    <path
       inkscape:connector-curvature="0"
       style="opacity:1;fill:#333333;fill-opacity:1;fill-rule:nonzero;stroke:#000000;stroke-width:1.847;stroke-linecap:round;stroke-linejoin:round;stroke-miterlimit:4;stroke-dasharray:none;stroke-dashoffset:0;stroke-opacity:1;paint-order:fill markers stroke"
       d="m 289.80078,-346.90625 a 55.493847,51.970428 0 0 0 -55.49414,51.9707 55.493847,51.970428 0 0 0 4.52148,20.40039 h -0.0664 c 0.34297,0.66022 0.66706,1.30386 1,1.95508 a 55.493847,51.970428 0 0 0 0.83008,1.62305 c 39.54812,78.41678 5.16617,89.72711 -58.75196,0.0469 l -0.0527,0.0957 a 79.276924,91.608887 0 0 0 -63.75195,-37.33399 79.276924,91.608887 0 0 0 -79.277348,91.60938 79.276924,91.608887 0 0 0 64.111328,89.88281 l -0.0156,0.0293 c 44.35669,17.4079 197.2052,-35.92387 154.58398,45.912106 C 141.5995,6.6742073 471.0438,58.458042 563.46289,6.4199219 584.3083,-5.3174394 410.74,-66.040407 582.45117,-62.789062 l -0.0391,-0.06641 a 71.463982,41.512165 33.372519 0 0 37.8125,-12.576172 71.463982,41.512165 33.372519 0 0 -36.84375,-73.978516 71.463982,41.512165 33.372519 0 0 -61.34766,-16.96875 l -0.0371,-0.0645 c -0.26648,0.065 -0.58175,0.1549 -0.85351,0.22266 a 71.463982,41.512165 33.372519 0 0 -6.67383,1.77148 71.463982,41.512165 33.372519 0 0 -0.006,0.002 c -66.85369,18.63858 -243.22053,88.367407 -173.58008,-110.17968 h -0.006 a 55.493847,51.970428 0 0 0 4.41797,-20.3086 55.493847,51.970428 0 0 0 -55.49414,-51.9707 z"
       id="path908" />
    <ellipse
       ry="39.165981"
       rx="55.614769"
       cy="59.45071"
       cx="474.96054"
       id="ellipse910"
       style="opacity:1;fill:#333333;fill-opacity:1;fill-rule:nonzero;stroke:#000000;stroke-width:1.60515106;stroke-linecap:round;stroke-linejoin:round;stroke-miterlimit:4;stroke-dasharray:none;stroke-dashoffset:0;stroke-opacity:1;paint-order:fill markers stroke"
       transform="rotate(-35.22429)" />
  </g>
  <g
     style="fill:#211120;fill-opacity:1;stroke:#000000"
     transform="translate(-37.834342,867.83327)"
     id="g906">
    <path
       inkscape:connector-curvature="0"
       style="opacity:1;fill:#211120;fill-opacity:1;fill-rule:nonzero;stroke:#000000;stroke-width:1.847;stroke-linecap:round;stroke-linejoin:round;stroke-miterlimit:4;stroke-dasharray:none;stroke-dashoffset:0;stroke-opacity:1;paint-order:fill markers stroke"
       d="m 289.80078,-346.90625 a 55.493847,51.970428 0 0 0 -55.49414,51.9707 55.493847,51.970428 0 0 0 4.52148,20.40039 h -0.0664 c 0.34297,0.66022 0.66706,1.30386 1,1.95508 a 55.493847,51.970428 0 0 0 0.83008,1.62305 c 39.54812,78.41678 5.16617,89.72711 -58.75196,0.0469 l -0.0527,0.0957 a 79.276924,91.608887 0 0 0 -63.75195,-37.33399 79.276924,91.608887 0 0 0 -79.277348,91.60938 79.276924,91.608887 0 0 0 64.111328,89.88281 l -0.0156,0.0293 c 44.35669,17.4079 197.2052,-35.92387 154.58398,45.912106 C 141.5995,6.6742073 471.0438,58.458042 563.46289,6.4199219 584.3083,-5.3174394 410.74,-66.040407 582.45117,-62.789062 l -0.0391,-0.06641 a 71.463982,41.512165 33.372519 0 0 37.8125,-12.576172 71.463982,41.512165 33.372519 0 0 -36.84375,-73.978516 71.463982,41.512165 33.372519 0 0 -61.34766,-16.96875 l -0.0371,-0.0645 c -0.26648,0.065 -0.58175,0.1549 -0.85351,0.22266 a 71.463982,41.512165 33.372519 0 0 -6.67383,1.77148 71.463982,41.512165 33.372519 0 0 -0.006,0.002 c -66.85369,18.63858 -243.22053,88.367407 -173.58008,-110.17968 h -0.006 a 55.493847,51.970428 0 0 0 4.41797,-20.3086 55.493847,51.970428 0 0 0 -55.49414,-51.9707 z"
       id="path902" />
    <ellipse
       ry="39.165981"
       rx="55.614769"
       cy="59.45071"
       cx="474.96054"
       id="ellipse904"
       style="opacity:1;fill:#211120;fill-opacity:1;fill-rule:nonzero;stroke:#000000;stroke-width:1.60515106;stroke-linecap:round;stroke-linejoin:round;stroke-miterlimit:4;stroke-dasharray:none;stroke-dashoffset:0;stroke-opacity:1;paint-order:fill markers stroke"
       transform="rotate(-35.22429)" />
  </g>
  <g
     id="g918"
     transform="translate(-37.834342,1387.8368)"
     style="fill:#263840;fill-opacity:1;stroke:#000000">
    <path
       id="path914"
       d="m 289.80078,-346.90625 a 55.493847,51.970428 0 0 0 -55.49414,51.9707 55.493847,51.970428 0 0 0 4.52148,20.40039 h -0.0664 c 0.34297,0.66022 0.66706,1.30386 1,1.95508 a 55.493847,51.970428 0 0 0 0.83008,1.62305 c 39.54812,78.41678 5.16617,89.72711 -58.75196,0.0469 l -0.0527,0.0957 a 79.276924,91.608887 0 0 0 -63.75195,-37.33399 79.276924,91.608887 0 0 0 -79.277348,91.60938 79.276924,91.608887 0 0 0 64.111328,89.88281 l -0.0156,0.0293 c 44.35669,17.4079 197.2052,-35.92387 154.58398,45.912106 C 141.5995,6.6742073 471.0438,58.458042 563.46289,6.4199219 584.3083,-5.3174394 410.74,-66.040407 582.45117,-62.789062 l -0.0391,-0.06641 a 71.463982,41.512165 33.372519 0 0 37.8125,-12.576172 71.463982,41.512165 33.372519 0 0 -36.84375,-73.978516 71.463982,41.512165 33.372519 0 0 -61.34766,-16.96875 l -0.0371,-0.0645 c -0.26648,0.065 -0.58175,0.1549 -0.85351,0.22266 a 71.463982,41.512165 33.372519 0 0 -6.67383,1.77148 71.463982,41.512165 33.372519 0 0 -0.006,0.002 c -66.85369,18.63858 -243.22053,88.367407 -173.58008,-110.17968 h -0.006 a 55.493847,51.970428 0 0 0 4.41797,-20.3086 55.493847,51.970428 0 0 0 -55.49414,-51.9707 z"
       style="opacity:1;fill:#263840;fill-opacity:1;fill-rule:nonzero;stroke:#000000;stroke-width:1.847;stroke-linecap:round;stroke-linejoin:round;stroke-miterlimit:4;stroke-dasharray:none;stroke-dashoffset:0;stroke-opacity:1;paint-order:fill markers stroke"
       inkscape:connector-curvature="0" />
    <ellipse
       transform="rotate(-35.22429)"
       style="opacity:1;fill:#263840;fill-opacity:1;fill-rule:nonzero;stroke:#000000;stroke-width:1.60515106;stroke-linecap:round;stroke-linejoin:round;stroke-miterlimit:4;stroke-dasharray:none;stroke-dashoffset:0;stroke-opacity:1;paint-order:fill markers stroke"
       id="ellipse916"
       cx="474.96054"
       cy="59.45071"
       rx="55.614769"
       ry="39.165981" />
  </g>
  <g
     id="g888"
     transform="translate(700.5021,1387.8368)"
     style="fill:#0f417a;fill-opacity:1;stroke:#000000">
    <path
       id="path884"
       d="m 289.80078,-346.90625 a 55.493847,51.970428 0 0 0 -55.49414,51.9707 55.493847,51.970428 0 0 0 4.52148,20.40039 h -0.0664 c 0.34297,0.66022 0.66706,1.30386 1,1.95508 a 55.493847,51.970428 0 0 0 0.83008,1.62305 c 39.54812,78.41678 5.16617,89.72711 -58.75196,0.0469 l -0.0527,0.0957 a 79.276924,91.608887 0 0 0 -63.75195,-37.33399 79.276924,91.608887 0 0 0 -79.277348,91.60938 79.276924,91.608887 0 0 0 64.111328,89.88281 l -0.0156,0.0293 c 44.35669,17.4079 197.2052,-35.92387 154.58398,45.912106 C 141.5995,6.6742073 471.0438,58.458042 563.46289,6.4199219 584.3083,-5.3174394 410.74,-66.040407 582.45117,-62.789062 l -0.0391,-0.06641 a 71.463982,41.512165 33.372519 0 0 37.8125,-12.576172 71.463982,41.512165 33.372519 0 0 -36.84375,-73.978516 71.463982,41.512165 33.372519 0 0 -61.34766,-16.96875 l -0.0371,-0.0645 c -0.26648,0.065 -0.58175,0.1549 -0.85351,0.22266 a 71.463982,41.512165 33.372519 0 0 -6.67383,1.77148 71.463982,41.512165 33.372519 0 0 -0.006,0.002 c -66.85369,18.63858 -243.22053,88.367407 -173.58008,-110.17968 h -0.006 a 55.493847,51.970428 0 0 0 4.41797,-20.3086 55.493847,51.970428 0 0 0 -55.49414,-51.9707 z"
       style="opacity:1;fill:#0f417a;fill-opacity:1;fill-rule:nonzero;stroke:#000000;stroke-width:1.847;stroke-linecap:round;stroke-linejoin:round;stroke-miterlimit:4;stroke-dasharray:none;stroke-dashoffset:0;stroke-opacity:1;paint-order:fill markers stroke"
       inkscape:connector-curvature="0" />
    <ellipse
       transform="rotate(-35.22429)"
       style="opacity:1;fill:#0f417a;fill-opacity:1;fill-rule:nonzero;stroke:#000000;stroke-width:1.60515106;stroke-linecap:round;stroke-linejoin:round;stroke-miterlimit:4;stroke-dasharray:none;stroke-dashoffset:0;stroke-opacity:1;paint-order:fill markers stroke"
       id="ellipse886"
       cx="474.96054"
       cy="59.45071"
       rx="55.614769"
       ry="39.165981" />
  </g>
  <text
     xml:space="preserve"
     style="font-style:italic;font-variant:normal;font-weight:normal;font-stretch:normal;font-size:32px;line-height:1.25;font-family:'Futura Bk BT';-inkscape-font-specification:'Futura Bk BT Italic';text-align:center;letter-spacing:0px;word-spacing:0px;text-anchor:middle;fill:#000000;fill-opacity:1;stroke:#000000"
     x="92.369888"
     y="587.38019"
     id="text830"><tspan
       sodipodi:role="line"
       id="tspan828"
       x="92.369888"
       y="587.38019">1.</tspan></text>
  <g
     id="g900"
     transform="translate(-37.834342,347.82975)"
     style="stroke:#000000">
    <path
       style="opacity:1;fill:#ffc033;fill-opacity:1;fill-rule:nonzero;stroke:#000000;stroke-width:1.847;stroke-linecap:round;stroke-linejoin:round;stroke-miterlimit:4;stroke-dasharray:none;stroke-dashoffset:0;stroke-opacity:1;paint-order:fill markers stroke"
       d="m 289.80078,-346.90625 a 55.493847,51.970428 0 0 0 -55.49414,51.9707 55.493847,51.970428 0 0 0 4.52148,20.40039 h -0.0664 c 0.34297,0.66022 0.66706,1.30386 1,1.95508 a 55.493847,51.970428 0 0 0 0.83008,1.62305 c 39.54812,78.41678 5.16617,89.72711 -58.75196,0.0469 l -0.0527,0.0957 a 79.276924,91.608887 0 0 0 -63.75195,-37.33399 79.276924,91.608887 0 0 0 -79.277348,91.60938 79.276924,91.608887 0 0 0 64.111328,89.88281 l -0.0156,0.0293 c 44.35669,17.4079 197.2052,-35.92387 154.58398,45.912106 C 141.5995,6.6742073 471.0438,58.458042 563.46289,6.4199219 584.3083,-5.3174394 410.74,-66.040407 582.45117,-62.789062 l -0.0391,-0.06641 a 71.463982,41.512165 33.372519 0 0 37.8125,-12.576172 71.463982,41.512165 33.372519 0 0 -36.84375,-73.978516 71.463982,41.512165 33.372519 0 0 -61.34766,-16.96875 l -0.0371,-0.0645 c -0.26648,0.065 -0.58175,0.1549 -0.85351,0.22266 a 71.463982,41.512165 33.372519 0 0 -6.67383,1.77148 71.463982,41.512165 33.372519 0 0 -0.006,0.002 c -66.85369,18.63858 -243.22053,88.367407 -173.58008,-110.17968 h -0.006 a 55.493847,51.970428 0 0 0 4.41797,-20.3086 55.493847,51.970428 0 0 0 -55.49414,-51.9707 z"
       id="path896"
       inkscape:connector-curvature="0" />
    <ellipse
       ry="39.165981"
       rx="55.614769"
       cy="59.45071"
       cx="474.96054"
       id="ellipse898"
       style="opacity:1;fill:#ffc033;fill-opacity:1;fill-rule:nonzero;stroke:#000000;stroke-width:1.60515106;stroke-linecap:round;stroke-linejoin:round;stroke-miterlimit:4;stroke-dasharray:none;stroke-dashoffset:0;stroke-opacity:1;paint-order:fill markers stroke"
       transform="rotate(-35.22429)" />
  </g>
  <g
     style="fill:#35153a;fill-opacity:1;stroke:#000000"
     transform="translate(700.5021,867.83327)"
     id="g859">
    <path
       inkscape:connector-curvature="0"
       style="opacity:1;fill:#35153a;fill-opacity:1;fill-rule:nonzero;stroke:#000000;stroke-width:1.847;stroke-linecap:round;stroke-linejoin:round;stroke-miterlimit:4;stroke-dasharray:none;stroke-dashoffset:0;stroke-opacity:1;paint-order:fill markers stroke"
       d="m 289.80078,-346.90625 a 55.493847,51.970428 0 0 0 -55.49414,51.9707 55.493847,51.970428 0 0 0 4.52148,20.40039 h -0.0664 c 0.34297,0.66022 0.66706,1.30386 1,1.95508 a 55.493847,51.970428 0 0 0 0.83008,1.62305 c 39.54812,78.41678 5.16617,89.72711 -58.75196,0.0469 l -0.0527,0.0957 a 79.276924,91.608887 0 0 0 -63.75195,-37.33399 79.276924,91.608887 0 0 0 -79.277348,91.60938 79.276924,91.608887 0 0 0 64.111328,89.88281 l -0.0156,0.0293 c 44.35669,17.4079 197.2052,-35.92387 154.58398,45.912106 C 141.5995,6.6742073 471.0438,58.458042 563.46289,6.4199219 584.3083,-5.3174394 410.74,-66.040407 582.45117,-62.789062 l -0.0391,-0.06641 a 71.463982,41.512165 33.372519 0 0 37.8125,-12.576172 71.463982,41.512165 33.372519 0 0 -36.84375,-73.978516 71.463982,41.512165 33.372519 0 0 -61.34766,-16.96875 l -0.0371,-0.0645 c -0.26648,0.065 -0.58175,0.1549 -0.85351,0.22266 a 71.463982,41.512165 33.372519 0 0 -6.67383,1.77148 71.463982,41.512165 33.372519 0 0 -0.006,0.002 c -66.85369,18.63858 -243.22053,88.367407 -173.58008,-110.17968 h -0.006 a 55.493847,51.970428 0 0 0 4.41797,-20.3086 55.493847,51.970428 0 0 0 -55.49414,-51.9707 z"
       id="path855" />
    <ellipse
       ry="39.165981"
       rx="55.614769"
       cy="59.45071"
       cx="474.96054"
       id="ellipse857"
       style="opacity:1;fill:#35153a;fill-opacity:1;fill-rule:nonzero;stroke:#000000;stroke-width:1.60515106;stroke-linecap:round;stroke-linejoin:round;stroke-miterlimit:4;stroke-dasharray:none;stroke-dashoffset:0;stroke-opacity:1;paint-order:fill markers stroke"
       transform="rotate(-35.22429)" />
  </g>
  <g
     style="fill:#4a1a48;fill-opacity:1;stroke:#000000"
     transform="translate(1438.8385,867.83327)"
     id="g865">
    <path
       inkscape:connector-curvature="0"
       style="opacity:1;fill:#4a1a48;fill-opacity:1;fill-rule:nonzero;stroke:#000000;stroke-width:1.847;stroke-linecap:round;stroke-linejoin:round;stroke-miterlimit:4;stroke-dasharray:none;stroke-dashoffset:0;stroke-opacity:1;paint-order:fill markers stroke"
       d="m 289.80078,-346.90625 a 55.493847,51.970428 0 0 0 -55.49414,51.9707 55.493847,51.970428 0 0 0 4.52148,20.40039 h -0.0664 c 0.34297,0.66022 0.66706,1.30386 1,1.95508 a 55.493847,51.970428 0 0 0 0.83008,1.62305 c 39.54812,78.41678 5.16617,89.72711 -58.75196,0.0469 l -0.0527,0.0957 a 79.276924,91.608887 0 0 0 -63.75195,-37.33399 79.276924,91.608887 0 0 0 -79.277348,91.60938 79.276924,91.608887 0 0 0 64.111328,89.88281 l -0.0156,0.0293 c 44.35669,17.4079 197.2052,-35.92387 154.58398,45.912106 C 141.5995,6.6742073 471.0438,58.458042 563.46289,6.4199219 584.3083,-5.3174394 410.74,-66.040407 582.45117,-62.789062 l -0.0391,-0.06641 a 71.463982,41.512165 33.372519 0 0 37.8125,-12.576172 71.463982,41.512165 33.372519 0 0 -36.84375,-73.978516 71.463982,41.512165 33.372519 0 0 -61.34766,-16.96875 l -0.0371,-0.0645 c -0.26648,0.065 -0.58175,0.1549 -0.85351,0.22266 a 71.463982,41.512165 33.372519 0 0 -6.67383,1.77148 71.463982,41.512165 33.372519 0 0 -0.006,0.002 c -66.85369,18.63858 -243.22053,88.367407 -173.58008,-110.17968 h -0.006 a 55.493847,51.970428 0 0 0 4.41797,-20.3086 55.493847,51.970428 0 0 0 -55.49414,-51.9707 z"
       id="path861" />
    <ellipse
       ry="39.165981"
       rx="55.614769"
       cy="59.45071"
       cx="474.96054"
       id="ellipse863"
       style="opacity:1;fill:#4a1a48;fill-opacity:1;fill-rule:nonzero;stroke:#000000;stroke-width:1.60515106;stroke-linecap:round;stroke-linejoin:round;stroke-miterlimit:4;stroke-dasharray:none;stroke-dashoffset:0;stroke-opacity:1;paint-order:fill markers stroke"
       transform="rotate(-35.22429)" />
  </g>
  <g
     style="fill:#eaf4f8;fill-opacity:1;stroke:#000000"
     transform="translate(1438.8385,1387.8368)"
     id="g924">
    <path
       inkscape:connector-curvature="0"
       style="opacity:1;fill:#eaf4f8;fill-opacity:1;fill-rule:nonzero;stroke:#000000;stroke-width:1.847;stroke-linecap:round;stroke-linejoin:round;stroke-miterlimit:4;stroke-dasharray:none;stroke-dashoffset:0;stroke-opacity:1;paint-order:fill markers stroke"
       d="m 289.80078,-346.90625 a 55.493847,51.970428 0 0 0 -55.49414,51.9707 55.493847,51.970428 0 0 0 4.52148,20.40039 h -0.0664 c 0.34297,0.66022 0.66706,1.30386 1,1.95508 a 55.493847,51.970428 0 0 0 0.83008,1.62305 c 39.54812,78.41678 5.16617,89.72711 -58.75196,0.0469 l -0.0527,0.0957 a 79.276924,91.608887 0 0 0 -63.75195,-37.33399 79.276924,91.608887 0 0 0 -79.277348,91.60938 79.276924,91.608887 0 0 0 64.111328,89.88281 l -0.0156,0.0293 c 44.35669,17.4079 197.2052,-35.92387 154.58398,45.912106 C 141.5995,6.6742073 471.0438,58.458042 563.46289,6.4199219 584.3083,-5.3174394 410.74,-66.040407 582.45117,-62.789062 l -0.0391,-0.06641 a 71.463982,41.512165 33.372519 0 0 37.8125,-12.576172 71.463982,41.512165 33.372519 0 0 -36.84375,-73.978516 71.463982,41.512165 33.372519 0 0 -61.34766,-16.96875 l -0.0371,-0.0645 c -0.26648,0.065 -0.58175,0.1549 -0.85351,0.22266 a 71.463982,41.512165 33.372519 0 0 -6.67383,1.77148 71.463982,41.512165 33.372519 0 0 -0.006,0.002 c -66.85369,18.63858 -243.22053,88.367407 -173.58008,-110.17968 h -0.006 a 55.493847,51.970428 0 0 0 4.41797,-20.3086 55.493847,51.970428 0 0 0 -55.49414,-51.9707 z"
       id="path920" />
    <ellipse
       ry="39.165981"
       rx="55.614769"
       cy="59.45071"
       cx="474.96054"
       id="ellipse922"
       style="opacity:1;fill:#eaf4f8;fill-opacity:1;fill-rule:nonzero;stroke:#000000;stroke-width:1.60515106;stroke-linecap:round;stroke-linejoin:round;stroke-miterlimit:4;stroke-dasharray:none;stroke-dashoffset:0;stroke-opacity:1;paint-order:fill markers stroke"
       transform="rotate(-35.22429)" />
  </g>
  <g
     style="fill:#62276b;fill-opacity:1;stroke:#000000"
     transform="translate(2177.175,867.83327)"
     id="g936">
    <path
       inkscape:connector-curvature="0"
       style="opacity:1;fill:#62276b;fill-opacity:1;fill-rule:nonzero;stroke:#000000;stroke-width:1.847;stroke-linecap:round;stroke-linejoin:round;stroke-miterlimit:4;stroke-dasharray:none;stroke-dashoffset:0;stroke-opacity:1;paint-order:fill markers stroke"
       d="m 289.80078,-346.90625 a 55.493847,51.970428 0 0 0 -55.49414,51.9707 55.493847,51.970428 0 0 0 4.52148,20.40039 h -0.0664 c 0.34297,0.66022 0.66706,1.30386 1,1.95508 a 55.493847,51.970428 0 0 0 0.83008,1.62305 c 39.54812,78.41678 5.16617,89.72711 -58.75196,0.0469 l -0.0527,0.0957 a 79.276924,91.608887 0 0 0 -63.75195,-37.33399 79.276924,91.608887 0 0 0 -79.277348,91.60938 79.276924,91.608887 0 0 0 64.111328,89.88281 l -0.0156,0.0293 c 44.35669,17.4079 197.2052,-35.92387 154.58398,45.912106 C 141.5995,6.6742073 471.0438,58.458042 563.46289,6.4199219 584.3083,-5.3174394 410.74,-66.040407 582.45117,-62.789062 l -0.0391,-0.06641 a 71.463982,41.512165 33.372519 0 0 37.8125,-12.576172 71.463982,41.512165 33.372519 0 0 -36.84375,-73.978516 71.463982,41.512165 33.372519 0 0 -61.34766,-16.96875 l -0.0371,-0.0645 c -0.26648,0.065 -0.58175,0.1549 -0.85351,0.22266 a 71.463982,41.512165 33.372519 0 0 -6.67383,1.77148 71.463982,41.512165 33.372519 0 0 -0.006,0.002 c -66.85369,18.63858 -243.22053,88.367407 -173.58008,-110.17968 h -0.006 a 55.493847,51.970428 0 0 0 4.41797,-20.3086 55.493847,51.970428 0 0 0 -55.49414,-51.9707 z"
       id="path932" />
    <ellipse
       ry="39.165981"
       rx="55.614769"
       cy="59.45071"
       cx="474.96054"
       id="ellipse934"
       style="opacity:1;fill:#62276b;fill-opacity:1;fill-rule:nonzero;stroke:#000000;stroke-width:1.60515106;stroke-linecap:round;stroke-linejoin:round;stroke-miterlimit:4;stroke-dasharray:none;stroke-dashoffset:0;stroke-opacity:1;paint-order:fill markers stroke"
       transform="rotate(-35.22429)" />
  </g>
  <g
     style="fill:#70286e;fill-opacity:1;stroke:#000000"
     transform="translate(2915.5114,867.83327)"
     id="g942">
    <path
       inkscape:connector-curvature="0"
       style="opacity:1;fill:#70286e;fill-opacity:1;fill-rule:nonzero;stroke:#000000;stroke-width:1.847;stroke-linecap:round;stroke-linejoin:round;stroke-miterlimit:4;stroke-dasharray:none;stroke-dashoffset:0;stroke-opacity:1;paint-order:fill markers stroke"
       d="m 289.80078,-346.90625 a 55.493847,51.970428 0 0 0 -55.49414,51.9707 55.493847,51.970428 0 0 0 4.52148,20.40039 h -0.0664 c 0.34297,0.66022 0.66706,1.30386 1,1.95508 a 55.493847,51.970428 0 0 0 0.83008,1.62305 c 39.54812,78.41678 5.16617,89.72711 -58.75196,0.0469 l -0.0527,0.0957 a 79.276924,91.608887 0 0 0 -63.75195,-37.33399 79.276924,91.608887 0 0 0 -79.277348,91.60938 79.276924,91.608887 0 0 0 64.111328,89.88281 l -0.0156,0.0293 c 44.35669,17.4079 197.2052,-35.92387 154.58398,45.912106 C 141.5995,6.6742073 471.0438,58.458042 563.46289,6.4199219 584.3083,-5.3174394 410.74,-66.040407 582.45117,-62.789062 l -0.0391,-0.06641 a 71.463982,41.512165 33.372519 0 0 37.8125,-12.576172 71.463982,41.512165 33.372519 0 0 -36.84375,-73.978516 71.463982,41.512165 33.372519 0 0 -61.34766,-16.96875 l -0.0371,-0.0645 c -0.26648,0.065 -0.58175,0.1549 -0.85351,0.22266 a 71.463982,41.512165 33.372519 0 0 -6.67383,1.77148 71.463982,41.512165 33.372519 0 0 -0.006,0.002 c -66.85369,18.63858 -243.22053,88.367407 -173.58008,-110.17968 h -0.006 a 55.493847,51.970428 0 0 0 4.41797,-20.3086 55.493847,51.970428 0 0 0 -55.49414,-51.9707 z"
       id="path938" />
    <ellipse
       ry="39.165981"
       rx="55.614769"
       cy="59.45071"
       cx="474.96054"
       id="ellipse940"
       style="opacity:1;fill:#70286e;fill-opacity:1;fill-rule:nonzero;stroke:#000000;stroke-width:1.60515106;stroke-linecap:round;stroke-linejoin:round;stroke-miterlimit:4;stroke-dasharray:none;stroke-dashoffset:0;stroke-opacity:1;paint-order:fill markers stroke"
       transform="rotate(-35.22429)" />
  </g>
</svg>
