<?xml version="1.0" encoding="UTF-8" standalone="no"?>
<svg
   xmlns:dc="http://purl.org/dc/elements/1.1/"
   xmlns:cc="http://creativecommons.org/ns#"
   xmlns:rdf="http://www.w3.org/1999/02/22-rdf-syntax-ns#"
   xmlns:svg="http://www.w3.org/2000/svg"
   xmlns="http://www.w3.org/2000/svg"
   xmlns:sodipodi="http://sodipodi.sourceforge.net/DTD/sodipodi-0.dtd"
   xmlns:inkscape="http://www.inkscape.org/namespaces/inkscape"
   width="502.64362"
   height="146.37242"
   viewBox="0 0 502.6436 146.37242"
   version="1.1"
   id="svg20"
   sodipodi:docname="LitecoinZLogoexample.svg"
   inkscape:version="0.92.3 (2405546, 2018-03-11)">
  <metadata
     id="metadata24">
    <rdf:RDF>
      <cc:Work
         rdf:about="">
        <dc:format>image/svg+xml</dc:format>
        <dc:type
           rdf:resource="http://purl.org/dc/dcmitype/StillImage" />
        <dc:title />
      </cc:Work>
    </rdf:RDF>
  </metadata>
  <sodipodi:namedview
     pagecolor="#ffffff"
     bordercolor="#666666"
     borderopacity="1"
     objecttolerance="10"
     gridtolerance="10"
     guidetolerance="10"
     inkscape:pageopacity="0"
     inkscape:pageshadow="2"
     inkscape:window-width="1360"
     inkscape:window-height="705"
     id="namedview22"
     showgrid="false"
     inkscape:zoom="0.80275075"
     inkscape:cx="224.8146"
     inkscape:cy="40.884303"
     inkscape:window-x="-8"
     inkscape:window-y="-8"
     inkscape:window-maximized="1"
     inkscape:current-layer="svg20"
     fit-margin-top="0"
     fit-margin-left="0"
     fit-margin-right="0"
     fit-margin-bottom="0" />
  <defs
     id="defs4">
    <style
       id="style2">
      .cls-1 {
        font-size: 120px;
      }

      .cls-1, .cls-3, .cls-5 {
        font-family: FuturaBT-Medium, Futura Md BT;
        font-weight: 500;
      }

      .cls-2, .cls-5 {
        fill: #fff;
      }

      .cls-2, .cls-3 {
        stroke: #8b8b8b;
      }

      .cls-2 {
        stroke-width: 0.036px;
      }

      .cls-3, .cls-4 {
        fill: #ffca39;
      }

      .cls-3 {
        stroke-width: 0.036px;
        font-size: 125px;
      }

      .cls-4 {
        fill-rule: evenodd;
      }

      .cls-5 {
        font-size: 25px;
      }
    </style>
  </defs>
  <path
     style="fill:#009fa6;fill-rule:evenodd;fill-opacity:1"
     inkscape:connector-curvature="0"
     d="m 79.790717,2.4155346 c -22.36,-0.242 -44.284,11.9189994 -57.032,30.0919994 -18.0750003,24.878 -17.4000003,61.159 1.467,85.415996 a 72.155,72.155 0 0 0 45.841,27.47 c 16.362,1.53 33.784003,0.373 47.928003,-8.847 22.826,-13.27 37.822,-39.629996 35.566,-66.214996 -0.664,-36.355 -34.047,-69.0329994 -70.608003,-67.8999994 -1.055,-0.024 -2.109,-0.024 -3.163,-0.012 z m 2.618,12.7999994 c 16.776,-0.106 32.918003,7.772 43.751003,20.494 13.057,14.316 17.669,35.6 12.367,54.194 -1.313,5.193 -3.711,9.999996 -5.95,14.837996 l -70.776003,0.207 10.1,-22.799996 -13.349,2.946 2.527,-5.534 13.144,-2.864 1.39,-2.532 -13.638,3.052 2.578,-5.915 13.563,-2.729 4.729,-11.023 -15.4,0.059 c 0,0 -17.676,39.838996 -26.094,58.727996 26.974,0.275 54.349,0.094 81.322003,0.37 -21.668,22.062 -61.538003,22.179 -82.471003,-1.027 -18.926,-17.527 -22.8,-48.290996 -10.044,-70.508996 a 17.471,17.471 0 0 0 1.071,-1.583 c 22.975,0.54 46.1,0.573 69.259003,0.8 l -8.769003,21.047 13.092003,-2.821 -2.328,5.606 -13.400003,2.94 -0.826,2.491 13.105003,-3 -2.520003,5.78 -13.25,2.972 -5.162,11.443 15.309,0.265 c 0,0 17.638003,-39.686 26.272003,-59.071 -27.038003,-0.275 -54.451003,-0.07 -81.489003,-0.347 a 59.487,59.487 0 0 1 41.884,-16.484 z"
     class="cls-4"
     id="path1989" />
  <path
     id="path824"
     class="cls-4"
     d="M 464.73027,11.036051 C 445.48694,-0.35352686 420.4197,-0.78379186 400.2931,8.5804874 372.2007,21.087968 354.64476,52.845735 358.85556,83.286414 a 72.155,72.155 0 0 0 25.96447,46.710216 c 13.40491,9.50602 29.07131,17.21503 45.93037,16.30228 26.4029,-0.0792 52.56981,-15.40959 63.90856,-39.56087 17.60246,-31.816361 5.03093,-76.807839 -27.19832,-94.107132 -0.90166,-0.548285 -1.81445,-1.075285 -2.73324,-1.591893 z m -4.13275,12.394125 c 14.58144,8.296202 24.62182,23.18975 27.64248,39.623825 4.14969,18.92652 -2.4982,39.665009 -16.38687,53.116879 -3.73359,3.84077 -8.21382,6.80476 -12.57185,9.87509 l -61.39731,-35.208736 20.14685,-14.695379 -13.03357,-4.123189 4.95545,-3.529085 12.81504,4.091703 2.46977,-1.497776 -13.33685,-4.175891 5.19011,-3.83354 13.1104,4.418117 9.60694,-7.181698 -13.36629,-7.648905 c 0,0 -35.22737,25.663586 -51.96207,37.81294 23.22267,13.725159 47.02061,27.255909 70.24192,40.981429 -29.79604,8.27226 -64.38297,-11.56142 -70.90848,-42.124907 -7.6269,-24.641828 4.40012,-53.221233 26.55614,-66.084586 a 17.471,17.471 0 0 0 1.71901,-0.835418 c 19.62693,11.955154 39.63727,23.546233 59.58005,35.32232 l -18.11767,13.842737 12.7485,4.102942 -4.81911,3.690939 -13.07474,-4.153885 -1.96083,1.744269 12.84926,3.954424 -5.07238,3.745626 -12.96084,-4.051172 -10.19192,7.328929 13.12548,7.883996 c 0,0 35.11795,-25.550084 52.28772,-38.020986 -23.2781,-13.757157 -47.12095,-27.286122 -70.39805,-41.045011 a 59.487,59.487 0 0 1 44.51461,6.666437 z"
     inkscape:connector-curvature="0"
     style="fill:#35153a;fill-opacity:1;fill-rule:evenodd" />
  <path
     style="fill:#8d6800;fill-opacity:1;fill-rule:evenodd"
     inkscape:connector-curvature="0"
     d="M 218.53066,12.964915 C 199.04534,23.935337 186.1391,45.429072 184.1855,67.541351 180.97109,98.12383 199.69616,129.2066 228.16396,140.78028 a 72.155,72.155 0 0 0 53.43447,0.86922 c 14.93491,-6.85598 29.44431,-16.56897 37.08337,-31.62573 13.13289,-22.905159 12.93981,-53.231588 -2.30644,-75.126874 -18.75254,-31.1523527 -64.00207,-42.7608313 -95.09832,-23.499125 -0.92566,0.506716 -1.83845,1.033716 -2.74524,1.571108 z m 8.66726,9.776125 c 14.47544,-8.479799 32.39382,-9.728251 48.13648,-4.127175 18.46569,5.869519 33.1018,21.996004 37.80713,40.74988 1.45941,5.15377 1.78618,10.515754 2.26615,15.825085 l -61.19031,35.56727 -2.65315,-24.795382 -10.08757,9.225811 -0.57855,-6.056084 9.95103,-9.052297 -0.0622,-2.887776 -10.28485,9.462109 -0.72489,-6.41154 10.3814,-9.144884 -1.41606,-11.910698 -13.3073,7.751096 c 0,0 4.61164,43.339595 6.76594,63.906945 23.49767,-13.24884 47.11461,-27.09309 70.61192,-40.340576 -7.73404,29.940256 -42.20398,49.976586 -71.93549,40.346096 -25.15389,-5.71583 -43.89087,-30.42123 -43.95285,-56.040589 a 17.471,17.471 0 0 0 0.13601,-1.906418 c 20.16693,-11.019847 40.21027,-22.553768 60.38005,-33.93668 l 2.92933,22.611737 9.9275,-8.989058 0.78689,6.018939 -10.13474,9.246114 0.53017,2.570269 9.84926,-9.150576 0.70761,6.265627 -9.98883,9.198828 1.25107,12.490928 13.39049,-7.425003 c 0,0 -4.56805,-43.188084 -6.78328,-64.292987 -23.5531,13.280843 -47.19095,27.164879 -70.74505,40.44399 a 59.487,59.487 0 0 1 28.03061,-35.217563 z"
     class="cls-4"
     id="path826" />
  <text
     xml:space="preserve"
     style="font-style:italic;font-variant:normal;font-weight:normal;font-stretch:normal;font-size:32px;line-height:1.25;font-family:'Futura Bk BT';-inkscape-font-specification:'Futura Bk BT Italic';text-align:center;letter-spacing:0px;word-spacing:0px;text-anchor:middle;fill:#000000;fill-opacity:1;stroke:none"
     x="8.375"
     y="23.046875"
     id="text830"><tspan
       sodipodi:role="line"
       id="tspan828"
       x="8.375"
       y="23.046875">1.</tspan></text>
  <text
     xml:space="preserve"
     style="font-style:italic;font-variant:normal;font-weight:normal;font-stretch:normal;font-size:32px;line-height:1.25;font-family:'Futura Bk BT';-inkscape-font-specification:'Futura Bk BT Italic';text-align:center;letter-spacing:0px;word-spacing:0px;text-anchor:middle;fill:#000000;fill-opacity:1;stroke:none"
     x="185.17517"
     y="23.273438"
     id="text834"><tspan
       sodipodi:role="line"
       id="tspan832"
       x="185.17517"
       y="23.273438">2.</tspan></text>
  <text
     xml:space="preserve"
     style="font-style:italic;font-variant:normal;font-weight:normal;font-stretch:normal;font-size:32px;line-height:1.25;font-family:'Futura Bk BT';-inkscape-font-specification:'Futura Bk BT Italic';text-align:center;letter-spacing:0px;word-spacing:0px;text-anchor:middle;fill:#000000;fill-opacity:1;stroke:none"
     x="360.91284"
     y="23.109375"
     id="text838"><tspan
       sodipodi:role="line"
       id="tspan836"
       x="360.91284"
       y="23.109375">3.</tspan></text>
</svg>
