<?xml version="1.0" encoding="UTF-8" standalone="no"?>
<svg
   xmlns:dc="http://purl.org/dc/elements/1.1/"
   xmlns:cc="http://creativecommons.org/ns#"
   xmlns:rdf="http://www.w3.org/1999/02/22-rdf-syntax-ns#"
   xmlns:svg="http://www.w3.org/2000/svg"
   xmlns="http://www.w3.org/2000/svg"
   xmlns:sodipodi="http://sodipodi.sourceforge.net/DTD/sodipodi-0.dtd"
   xmlns:inkscape="http://www.inkscape.org/namespaces/inkscape"
   width="172.203"
   height="169.41"
   viewBox="0 0 172.203 169.41"
   version="1.1"
   id="svg11"
   sodipodi:docname="ltzstandalone.svg"
   inkscape:version="0.92.3 (2405546, 2018-03-11)">
  <metadata
     id="metadata15">
    <rdf:RDF>
      <cc:Work
         rdf:about="">
        <dc:format>image/svg+xml</dc:format>
        <dc:type
           rdf:resource="http://purl.org/dc/dcmitype/StillImage" />
      </cc:Work>
    </rdf:RDF>
  </metadata>
  <sodipodi:namedview
     pagecolor="#ffffff"
     bordercolor="#666666"
     borderopacity="1"
     objecttolerance="10"
     gridtolerance="10"
     guidetolerance="10"
     inkscape:pageopacity="0"
     inkscape:pageshadow="2"
     inkscape:window-width="1360"
     inkscape:window-height="705"
     id="namedview13"
     showgrid="false"
     inkscape:zoom="1.39307"
     inkscape:cx="90.408535"
     inkscape:cy="79.680129"
     inkscape:window-x="-8"
     inkscape:window-y="-8"
     inkscape:window-maximized="1"
     inkscape:current-layer="svg11" />
  <defs
     id="defs4">
    <style
       id="style2">
      .cls-1 {
        fill: #ffca39;
      }

      .cls-2, .cls-3 {
        fill-rule: evenodd;
      }

      .cls-3 {
        fill: #fff;
      }
    </style>
  </defs>
  <g
     id="ltzstandalone"
     transform="translate(0)">
    <ellipse
       id="path6174-4-9"
       class="cls-1"
       cx="85.043"
       cy="84.69"
       rx="85.043"
       ry="84.69"
       transform="translate(0.003 0.016)" />
    <g
       id="g6051-4-9"
       transform="translate(0 0)">
      <path
         id="path6047-6-6"
         class="cls-2"
         d="M97.786,58.45c-26.386-.285-52.258,14.065-67.3,35.511-21.33,29.358-20.539,72.172,1.731,100.8a85.146,85.146,0,0,0,54.1,32.417c19.308,1.806,39.868.441,56.559-10.441,26.937-15.659,44.632-46.766,41.97-78.138-.783-42.9-40.178-81.464-83.323-80.133-1.244-.024-2.488-.02-3.732-.012Zm3.089,15.1c19.8-.124,38.846,9.172,51.629,24.185,15.408,16.894,20.851,42.013,14.594,63.952-1.55,6.129-4.379,11.8-7.021,17.51l-83.521.244,11.922-26.908-15.753,3.477,2.981-6.531,15.511-3.38,1.64-2.988-16.094,3.6,3.043-6.98,16.005-3.22,5.58-13.008-18.175.076s-20.859,47.013-30.793,69.3c31.831.325,64.136.111,95.967.436-25.57,26.035-72.619,26.173-97.322-1.211-22.334-20.684-26.9-56.987-11.852-83.206a20.706,20.706,0,0,0,1.264-1.868c27.112.638,54.405.677,81.731.942l-10.345,24.844,15.449-3.328-2.747,6.615-15.817,3.47-.976,2.939,15.466-3.541L120.27,145.8l-15.635,3.507-6.092,13.5,18.066.313s20.815-46.832,31-69.707C115.7,93.09,83.356,93.328,51.448,93a70.2,70.2,0,0,1,49.426-19.452Z"
         transform="translate(-12.901 -58.43)" />
      <path
         id="path6049-1-0"
         class="cls-3"
         d="M97.672,58.45c-26.386-.285-52.258,14.065-67.3,35.511C9.041,123.32,9.832,166.134,32.1,194.758a85.146,85.146,0,0,0,54.1,32.417c19.308,1.806,39.868.441,56.559-10.441,26.937-15.659,44.632-46.766,41.971-78.138-.783-42.9-40.178-81.464-83.323-80.133-1.244-.024-2.488-.02-3.732-.012Zm3.089,15.1c19.8-.124,38.846,9.172,51.629,24.185,15.408,16.894,20.851,42.013,14.594,63.952-1.55,6.129-4.379,11.8-7.021,17.51l-83.521.244,11.922-26.908-15.753,3.477,2.981-6.531L91.1,146.1l1.64-2.988-16.094,3.6,3.043-6.98,16.005-3.22,5.58-13.008-18.175.076s-20.859,47.013-30.793,69.3c31.831.325,64.136.111,95.967.436-25.57,26.035-72.619,26.173-97.322-1.211C28.623,171.425,24.055,135.122,39.1,108.9a20.7,20.7,0,0,0,1.264-1.868c27.112.638,54.405.677,81.731.942l-10.345,24.844,15.449-3.328-2.747,6.615-15.817,3.47-.976,2.939,15.466-3.541-2.974,6.822-15.635,3.507-6.092,13.5,18.066.313s20.815-46.832,31-69.707c-31.907-.325-64.256-.087-96.163-.411a70.2,70.2,0,0,1,49.426-19.452Z"
         transform="translate(-14.873 -58.43)"
         style="fill:#333333" />
    </g>
  </g>
</svg>
