<?xml version="1.0" encoding="UTF-8" standalone="no"?>
<svg
   xmlns:dc="http://purl.org/dc/elements/1.1/"
   xmlns:cc="http://creativecommons.org/ns#"
   xmlns:rdf="http://www.w3.org/1999/02/22-rdf-syntax-ns#"
   xmlns:svg="http://www.w3.org/2000/svg"
   xmlns="http://www.w3.org/2000/svg"
   xmlns:sodipodi="http://sodipodi.sourceforge.net/DTD/sodipodi-0.dtd"
   xmlns:inkscape="http://www.inkscape.org/namespaces/inkscape"
   width="242.034"
   height="163.795"
   viewBox="0 0 242.034 163.795"
   version="1.1"
   id="svg37"
   sodipodi:docname="walletservice.svg"
   inkscape:version="0.92.3 (2405546, 2018-03-11)">
  <metadata
     id="metadata41">
    <rdf:RDF>
      <cc:Work
         rdf:about="">
        <dc:format>image/svg+xml</dc:format>
        <dc:type
           rdf:resource="http://purl.org/dc/dcmitype/StillImage" />
      </cc:Work>
    </rdf:RDF>
  </metadata>
  <sodipodi:namedview
     pagecolor="#ffffff"
     bordercolor="#666666"
     borderopacity="1"
     objecttolerance="10"
     gridtolerance="10"
     guidetolerance="10"
     inkscape:pageopacity="0"
     inkscape:pageshadow="2"
     inkscape:window-width="1360"
     inkscape:window-height="705"
     id="namedview39"
     showgrid="false"
     inkscape:zoom="1.4408254"
     inkscape:cx="122.84365"
     inkscape:cy="16.033503"
     inkscape:window-x="-8"
     inkscape:window-y="-8"
     inkscape:window-maximized="1"
     inkscape:current-layer="svg37" />
  <defs
     id="defs4">
    <style
       id="style2">
      .cls-1 {
        fill: #ffca39;
      }

      .cls-2 {
        fill: #684d00;
      }

      .cls-3, .cls-4 {
        fill: #fff;
      }

      .cls-3, .cls-7 {
        fill-rule: evenodd;
      }

      .cls-5 {
        fill: #341539;
      }

      .cls-6 {
        fill: #b3b3b3;
      }
    </style>
  </defs>
  <g
     id="walletservice"
     transform="translate(0 -0.001)">
    <g
       id="g6187-7-0-5"
       transform="translate(69.045 0)">
      <path
         id="path6106-4-61-4"
         class="cls-1"
         d="M-1752.242-230.322c0-13.259-23.576-49.3-23.576-49.3s-24.439,36.041-24.439,49.3a24.012,24.012,0,0,0,24.01,24.007A24.006,24.006,0,0,0-1752.242-230.322Z"
         transform="translate(1827.237 360.581)" />
      <ellipse
         id="path6102-7-7-0"
         class="cls-2"
         cx="35.153"
         cy="10.289"
         rx="35.153"
         ry="10.289"
         transform="translate(15.203 49.277)" />
      <path
         id="path6099-7-4-6"
         class="cls-1"
         d="M-1752.242-261.769c0,13.259-23.576,49.3-23.576,49.3s-24.439-36.042-24.439-49.3a24.012,24.012,0,0,1,24.01-24.007A24.006,24.006,0,0,1-1752.242-261.769Z"
         transform="translate(1827.237 286.609)" />
      <path
         id="path6120-2-8-9"
         class="cls-3"
         d="M-1776.632-285.834a23.823,23.823,0,0,0-19.242,10.153,24.551,24.551,0,0,0,.5,28.819,24.348,24.348,0,0,0,15.469,9.269c5.521.516,11.4.126,16.171-2.985,7.7-4.478,12.758-13.371,12-22.341-.221-12.267-11.485-23.292-23.822-22.911-.354-.008-.711,0-1.068,0Zm.885,4.317a19.474,19.474,0,0,1,14.763,6.914,19.638,19.638,0,0,1,4.172,18.285,29.237,29.237,0,0,1-2.008,5.006l-23.88.07,3.413-7.693-4.5.994.849-1.867,4.434-.966.467-.855-4.6,1.03.871-2,4.572-.92,1.6-3.719-5.195.024s-5.967,13.442-8.8,19.814c9.1.093,18.34.031,27.441.125-7.311,7.444-20.766,7.483-27.825-.346-6.387-5.914-7.693-16.294-3.389-23.79a5.651,5.651,0,0,0,.36-.534c7.754.182,15.557.193,23.369.269l-2.96,7.1,4.417-.952-.783,1.892-4.523.992-.282.84,4.42-1.012-.849,1.95-4.47,1-1.74,3.861,5.165.089s5.95-13.389,8.863-19.93c-9.123-.093-18.367-.028-27.493-.118a20.068,20.068,0,0,1,14.13-5.562Z"
         transform="translate(1826.671 285.84)"
         style="fill:#333333" />
      <path
         id="ellipse6104-5-8-9"
         class="cls-4"
         d="M-1736.224-282.071l-.6,1.208c11.845,1.655,20.025,5.192,20.025,9.289,0,5.683-15.734,10.291-35.153,10.29s-35.158-4.607-35.153-10.29c0-4.268,8.882-7.929,21.529-9.487l-.5-.928c-20.992,3.294-36.251,13.237-36.251,24.991,0,14.443,23.034,26.151,51.446,26.15s51.445-11.709,51.445-26.15C-1699.439-268.852-1714.952-278.864-1736.224-282.071Z"
         transform="translate(1802.33 331.138)"
         style="fill:#333333" />
      <g
         id="Gruppe_108"
         data-name="Gruppe 108"
         transform="translate(-6869.045 -14178.657)">
        <path
           id="path5647-4-9"
           class="cls-4"
           d="M-389.818-52.419l6.608,6.608-6.608,14.91-6.608-14.91Z"
           transform="translate(7309.978 14350.681)"
           style="fill:#333333" />
        <path
           id="Differenzmenge_31"
           data-name="Differenzmenge 31"
           class="cls-4"
           d="M7.554,48.416,2.914,37.948l2.795-2.795,1.844,4.162L9.4,35.153l2.795,2.795L7.554,48.416h0Zm3-36.312h0l-3-3-3,3L0,7.553,7.554,0l7.554,7.554-4.55,4.55Z"
           transform="translate(6912.599 14285)"
           style="fill:#333333" />
        <path
           id="path5653-1-4"
           class="cls-4"
           d="M-1719.555-261.34a24.169,24.169,0,0,0-21.022,23.937,24.168,24.168,0,0,0,22.882,24.122l-1.709-3.856A20.511,20.511,0,0,1-1736.92-237.4a20.511,20.511,0,0,1,12.113-18.686Zm6.4.017,5.258,5.257-.016.016A20.511,20.511,0,0,1-1695.9-237.4a20.511,20.511,0,0,1-17.424,20.261l-1.7,3.838a24.169,24.169,0,0,0,22.781-24.1,24.169,24.169,0,0,0-20.916-23.921Zm-16.772,10.357,5.1,5.1Z"
           transform="translate(8636.577 14546.423)"
           style="fill:#333333" />
      </g>
    </g>
    <rect
       id="rect6237-5-0"
       class="cls-5"
       width="40.32"
       height="79.932"
       transform="translate(201.714 83.864)"
       style="fill:#333333;fill-opacity:1" />
    <rect
       id="rect6241-3-8"
       class="cls-6"
       width="33.737"
       height="66.882"
       transform="translate(205.056 88.429)" />
    <rect
       id="rect6259-5-2"
       class="cls-5"
       width="40.32"
       height="79.932"
       transform="translate(0 83.852)"
       style="fill:#333333;fill-opacity:1" />
    <rect
       id="rect6261-62-8"
       class="cls-6"
       width="33.737"
       height="66.882"
       transform="translate(3.241 88.416)" />
    <circle
       id="path27618-9-0"
       class="cls-1"
       cx="9.073"
       cy="9.073"
       r="9.073"
       transform="translate(196.631 31.472) rotate(90)" />
    <circle
       id="circle27620-0-0"
       class="cls-1"
       cx="5.01"
       cy="5.01"
       r="5.01"
       transform="translate(214.697 50.651) rotate(90)" />
    <circle
       id="circle27622-8-7"
       class="cls-1"
       cx="4.651"
       cy="4.651"
       r="4.651"
       transform="translate(166.942 34.111) rotate(90)" />
    <circle
       id="circle27635-8-1"
       class="cls-1"
       cx="9.073"
       cy="9.073"
       r="9.073"
       transform="translate(64.79 31.095) rotate(90)" />
    <circle
       id="circle27637-5-3"
       class="cls-1"
       cx="5.01"
       cy="5.01"
       r="5.01"
       transform="translate(38.6 50.274) rotate(90)" />
    <circle
       id="circle27639-5-5"
       class="cls-1"
       cx="4.651"
       cy="4.651"
       r="4.651"
       transform="translate(85.635 33.733) rotate(90)" />
    <g
       id="g7129-3-2"
       transform="translate(15.599 90.037)">
      <ellipse
         id="path6174-4-9"
         class="cls-1"
         cx="10.555"
         cy="10.512"
         rx="10.555"
         ry="10.512"
         transform="translate(0 0.002)" />
      <g
         id="g6051-4-9"
         transform="translate(0 0)">
        <path
           id="path6047-6-6"
           class="cls-7"
           d="M25.263,58.432a10.344,10.344,0,0,0-8.353,4.408,10.56,10.56,0,0,0,6.929,16.534,10.868,10.868,0,0,0,7.02-1.3,10.542,10.542,0,0,0-5.133-19.644c-.154,0-.309,0-.463,0Zm.383,1.874a8.677,8.677,0,0,1,8.22,10.94,12.605,12.605,0,0,1-.871,2.173l-10.366.03,1.48-3.34-1.955.432.37-.811,1.925-.42.2-.371-2,.447.378-.866,1.987-.4.693-1.615-2.256.009s-2.589,5.835-3.822,8.6c3.951.04,7.96.014,11.911.054A8.667,8.667,0,0,1,17.993,64.694a2.571,2.571,0,0,0,.157-.232c3.365.079,6.753.084,10.144.117l-1.284,3.084,1.918-.413-.341.821-1.963.431-.121.365,1.92-.44-.369.847-1.941.435-.756,1.676,2.242.039s2.584-5.813,3.848-8.652c-3.96-.04-7.975-.011-11.936-.051a8.713,8.713,0,0,1,6.135-2.414Z"
           transform="translate(-14.727 -58.43)" />
        <path
           id="path6049-1-0"
           class="cls-3"
           d="M25.15,58.432A10.344,10.344,0,0,0,16.8,62.84a10.56,10.56,0,0,0,6.929,16.534,10.868,10.868,0,0,0,7.02-1.3,10.542,10.542,0,0,0-5.133-19.644c-.154,0-.309,0-.463,0Zm.383,1.874a8.677,8.677,0,0,1,8.22,10.94,12.605,12.605,0,0,1-.871,2.173l-10.366.03,1.48-3.34-1.955.432.37-.811,1.925-.42.2-.371-2,.447.378-.866,1.987-.4.693-1.615-2.256.009s-2.589,5.835-3.822,8.6c3.951.04,7.96.014,11.911.054A8.667,8.667,0,0,1,17.88,64.694a2.569,2.569,0,0,0,.157-.232c3.365.079,6.753.084,10.144.117L26.9,67.663l1.918-.413-.341.821-1.963.431-.121.365,1.92-.44-.369.847L26,69.709l-.756,1.676,2.242.039s2.584-5.813,3.848-8.652c-3.96-.04-7.975-.011-11.936-.051a8.713,8.713,0,0,1,6.135-2.414Z"
           transform="translate(-14.873 -58.43)" />
      </g>
    </g>
    <g
       id="g7129-3-2-2"
       data-name="g7129-3-2"
       transform="translate(207.16 90.037)">
      <ellipse
         id="path6174-4-9-2"
         data-name="path6174-4-9"
         class="cls-1"
         cx="10.555"
         cy="10.512"
         rx="10.555"
         ry="10.512"
         transform="translate(0 0.002)" />
      <g
         id="g6051-4-9-2"
         data-name="g6051-4-9"
         transform="translate(0 0)">
        <path
           id="path6047-6-6-2"
           data-name="path6047-6-6"
           class="cls-7"
           d="M25.263,58.432a10.344,10.344,0,0,0-8.353,4.408,10.56,10.56,0,0,0,6.929,16.534,10.868,10.868,0,0,0,7.02-1.3,10.542,10.542,0,0,0-5.133-19.644c-.154,0-.309,0-.463,0Zm.383,1.874a8.677,8.677,0,0,1,8.22,10.94,12.605,12.605,0,0,1-.871,2.173l-10.366.03,1.48-3.34-1.955.432.37-.811,1.925-.42.2-.371-2,.447.378-.866,1.987-.4.693-1.615-2.256.009s-2.589,5.835-3.822,8.6c3.951.04,7.96.014,11.911.054A8.667,8.667,0,0,1,17.993,64.694a2.571,2.571,0,0,0,.157-.232c3.365.079,6.753.084,10.144.117l-1.284,3.084,1.918-.413-.341.821-1.963.431-.121.365,1.92-.44-.369.847-1.941.435-.756,1.676,2.242.039s2.584-5.813,3.848-8.652c-3.96-.04-7.975-.011-11.936-.051a8.713,8.713,0,0,1,6.135-2.414Z"
           transform="translate(-14.727 -58.43)" />
        <path
           id="path6049-1-0-2"
           data-name="path6049-1-0"
           class="cls-3"
           d="M25.15,58.432A10.344,10.344,0,0,0,16.8,62.84a10.56,10.56,0,0,0,6.929,16.534,10.868,10.868,0,0,0,7.02-1.3,10.542,10.542,0,0,0-5.133-19.644c-.154,0-.309,0-.463,0Zm.383,1.874a8.677,8.677,0,0,1,8.22,10.94,12.605,12.605,0,0,1-.871,2.173l-10.366.03,1.48-3.34-1.955.432.37-.811,1.925-.42.2-.371-2,.447.378-.866,1.987-.4.693-1.615-2.256.009s-2.589,5.835-3.822,8.6c3.951.04,7.96.014,11.911.054A8.667,8.667,0,0,1,17.88,64.694a2.569,2.569,0,0,0,.157-.232c3.365.079,6.753.084,10.144.117L26.9,67.663l1.918-.413-.341.821-1.963.431-.121.365,1.92-.44-.369.847L26,69.709l-.756,1.676,2.242.039s2.584-5.813,3.848-8.652c-3.96-.04-7.975-.011-11.936-.051a8.713,8.713,0,0,1,6.135-2.414Z"
           transform="translate(-14.873 -58.43)" />
      </g>
    </g>
  </g>
</svg>
