<?xml version="1.0" encoding="UTF-8" standalone="no"?>
<svg
   xmlns:dc="http://purl.org/dc/elements/1.1/"
   xmlns:cc="http://creativecommons.org/ns#"
   xmlns:rdf="http://www.w3.org/1999/02/22-rdf-syntax-ns#"
   xmlns:svg="http://www.w3.org/2000/svg"
   xmlns="http://www.w3.org/2000/svg"
   xmlns:xlink="http://www.w3.org/1999/xlink"
   xmlns:sodipodi="http://sodipodi.sourceforge.net/DTD/sodipodi-0.dtd"
   xmlns:inkscape="http://www.inkscape.org/namespaces/inkscape"
   width="284.02344"
   height="148.2403"
   viewBox="0 0 284.02343 148.24029"
   version="1.1"
   id="svg20"
   sodipodi:docname="LitecoinZLogoFacebook.svg"
   inkscape:version="0.92.3 (2405546, 2018-03-11)">
  <metadata
     id="metadata24">
    <rdf:RDF>
      <cc:Work
         rdf:about="">
        <dc:format>image/svg+xml</dc:format>
        <dc:type
           rdf:resource="http://purl.org/dc/dcmitype/StillImage" />
        <dc:title />
      </cc:Work>
    </rdf:RDF>
  </metadata>
  <sodipodi:namedview
     pagecolor="#ffffff"
     bordercolor="#666666"
     borderopacity="1"
     objecttolerance="10"
     gridtolerance="10"
     guidetolerance="10"
     inkscape:pageopacity="0"
     inkscape:pageshadow="2"
     inkscape:window-width="1360"
     inkscape:window-height="705"
     id="namedview22"
     showgrid="false"
     inkscape:zoom="2.270522"
     inkscape:cx="132.93036"
     inkscape:cy="62.555581"
     inkscape:window-x="-8"
     inkscape:window-y="-8"
     inkscape:window-maximized="1"
     inkscape:current-layer="svg20"
     inkscape:snap-center="true"
     inkscape:snap-others="true"
     inkscape:snap-object-midpoints="true"
     inkscape:snap-intersection-paths="true"
     fit-margin-top="0"
     fit-margin-left="0"
     fit-margin-right="0"
     fit-margin-bottom="0" />
  <defs
     id="defs4">
    <linearGradient
       inkscape:collect="always"
       id="linearGradient837">
      <stop
         style="stop-color:#592361;stop-opacity:1"
         offset="0"
         id="stop833" />
      <stop
         style="stop-color:#35153a;stop-opacity:1"
         offset="1"
         id="stop835" />
    </linearGradient>
    <style
       id="style2">
      .cls-1 {
        font-size: 120px;
      }

      .cls-1, .cls-3, .cls-5 {
        font-family: FuturaBT-Medium, Futura Md BT;
        font-weight: 500;
      }

      .cls-2, .cls-5 {
        fill: #fff;
      }

      .cls-2, .cls-3 {
        stroke: #8b8b8b;
      }

      .cls-2 {
        stroke-width: 0.036px;
      }

      .cls-3, .cls-4 {
        fill: #ffca39;
      }

      .cls-3 {
        stroke-width: 0.036px;
        font-size: 125px;
      }

      .cls-4 {
        fill-rule: evenodd;
      }

      .cls-5 {
        font-size: 25px;
      }
    </style>
    <linearGradient
       inkscape:collect="always"
       xlink:href="#linearGradient837"
       id="linearGradient4529"
       x1="5.7255554"
       y1="63.990318"
       x2="270.81061"
       y2="103.62878"
       gradientUnits="userSpaceOnUse" />
  </defs>
  <rect
     style="opacity:1;fill:url(#linearGradient4529);fill-opacity:1;fill-rule:nonzero;stroke:none;stroke-width:1.2639457;stroke-linecap:round;stroke-linejoin:miter;stroke-miterlimit:4;stroke-dasharray:none;stroke-dashoffset:0;stroke-opacity:1;paint-order:fill markers stroke"
     id="rect822"
     width="284.02344"
     height="148.2403"
     x="0"
     y="0" />
  <g
     id="g831"
     transform="translate(-117.63245,194.17888)">
    <path
       id="path1503-4"
       class="cls-2"
       d="m 232.32553,-135.40197 a 2.6453262,2.6453262 0 0 0 -1.91101,0.78799 2.5570945,2.5570945 0 0 0 -0.78798,1.87035 2.6896454,2.6896454 0 0 0 2.6994,2.69941 2.5705123,2.5705123 0 0 0 1.89109,-0.76848 2.6615902,2.6615902 0 0 0 0.76807,-1.93093 2.6245898,2.6245898 0 0 0 -2.65957,-2.65956 z m 87.31976,0 a 2.6428867,2.6428867 0 0 0 -1.91101,0.78799 2.5566879,2.5566879 0 0 0 -0.78798,1.87035 2.6896454,2.6896454 0 0 0 2.69858,2.69941 2.5721386,2.5721386 0 0 0 1.89191,-0.76848 2.6624034,2.6624034 0 0 0 0.76887,-1.93093 2.625403,2.625403 0 0 0 -2.66037,-2.65956 z m -108.28273,0.56924 v 2.41438 a 31.570298,31.570298 0 0 1 2.21962,10.9509 32.745772,32.745772 0 0 1 -2.21962,14.69445 v 0.78758 h 15.17017 v -4.19771 h -10.48128 v -24.64757 z m 30.20332,3.09339 v 7.07481 h -3.27067 v 3.74354 h 3.27026 v 14.93435 h 4.27579 v -14.93435 h 3.27026 v -3.74354 h -3.27026 v -7.07481 z m 19.64356,6.42425 q -4.31481,0 -7.0748,2.83725 -2.73844,2.81772 -2.73803,7.21101 0,4.57097 2.65915,7.30941 2.65915,2.73844 7.15246,2.73844 a 10.49348,10.49348 0 0 0 5.45695,-1.37878 10.913902,10.913902 0 0 0 3.90132,-4.1969 l -3.60531,-2.00982 a 7.1483986,7.1483986 0 0 1 -2.40381,2.79862 6.3640712,6.3640712 0 0 1 -3.44795,0.86605 4.9226814,4.9226814 0 0 1 -3.72363,-1.45806 q -1.39869,-1.47758 -1.55605,-4.09769 h 14.93435 v -0.80832 q 0,-4.64985 -2.52091,-7.23053 -2.5209,-2.58068 -7.03414,-2.57986 z m 23.01344,0 q -4.62992,0 -7.5062,2.77748 -2.85716,2.75835 -2.85675,7.27078 0,4.45225 2.75836,7.25045 2.77788,2.7978 7.17116,2.7974 a 11.725472,11.725472 0 0 0 2.85717,-0.33504 9.9510781,9.9510781 0 0 0 2.54164,-1.0047 v -4.92512 a 6.1026287,6.1026287 0 0 1 -2.14765,1.77358 6.4799516,6.4799516 0 0 1 -2.77747,0.56924 q -2.7978,0 -4.39329,-1.65486 -1.57638,-1.67437 -1.57638,-4.59049 0,-2.79739 1.57638,-4.4925 a 5.4569511,5.4569511 0 0 1 4.1965,-1.69389 6.9239566,6.9239566 0 0 1 2.81731,0.56924 6.6633272,6.6633272 0 0 1 2.305,1.65485 v -4.80354 a 8.5625462,8.5625462 0 0 0 -2.28507,-0.86687 11.386775,11.386775 0 0 0 -2.67948,-0.2956 z m 18.24487,0 a 10.4577,10.4577 0 0 0 -3.92123,0.74855 10.173487,10.173487 0 0 0 -5.55982,5.39881 10.090948,10.090948 0 0 0 0,7.72536 10.111684,10.111684 0 0 0 2.24645,3.27067 9.981167,9.981167 0 0 0 3.32963,2.1875 10.393457,10.393457 0 0 0 7.84124,0 10.539426,10.539426 0 0 0 3.40852,-2.22653 9.3696429,9.3696429 0 0 0 2.20701,-3.21212 9.8490222,9.8490222 0 0 0 0.76766,-3.88138 9.6481631,9.6481631 0 0 0 -0.76766,-3.80251 9.8978143,9.8978143 0 0 0 -2.24605,-3.25279 10.045816,10.045816 0 0 0 -3.34955,-2.2062 10.463392,10.463392 0 0 0 -3.95986,-0.74854 z m 36.66538,0 a 9.1797618,9.1797618 0 0 0 -4.21602,0.88639 8.0583648,8.0583648 0 0 0 -3.01451,2.81732 v -3.05356 h -4.01923 v 18.67789 h 4.27498 v -8.5105 a 22.334425,22.334425 0 0 1 0.17687,-3.34955 4.3550706,4.3550706 0 0 1 0.67007,-1.73373 4.4319177,4.4319177 0 0 1 1.83213,-1.55646 6.2689272,6.2689272 0 0 1 2.67948,-0.55216 q 2.28549,0 3.17146,1.22183 0.90631,1.20231 0.90672,4.88608 v 7.35943 l 4.31482,-7.29885 v -1.79431 a 19.982663,19.982663 0 0 0 -0.21712,-3.58579 5.3426971,5.3426971 0 0 0 -0.70912,-1.79269 5.0885734,5.0885734 0 0 0 -2.30581,-1.95167 8.464556,8.464556 0 0 0 -3.54676,-0.67007 z m -108.9337,0.65056 v 18.67789 h 4.27376 v -18.67748 z m 87.32017,0 v 18.67789 h 4.27578 v -18.67748 z m -56.23006,2.97467 q 2.22654,0 3.50732,1.06407 a 4.4868084,4.4868084 0 0 1 1.53612,3.05396 h -10.22716 a 5.5000505,5.5000505 0 0 1 1.79311,-3.0934 5.2638171,5.2638171 0 0 1 3.38858,-1.02504 z m 41.21724,0.21712 a 5.3646534,5.3646534 0 0 1 4.0977,1.81262 6.5974584,6.5974584 0 0 1 -0.0195,8.80732 5.3703457,5.3703457 0 0 1 -4.07819,1.79269 5.4329618,5.4329618 0 0 1 -4.0985,-1.79269 6.2664877,6.2664877 0 0 1 -1.67437,-4.41362 6.1961462,6.1961462 0 0 1 1.67437,-4.3937 5.4077528,5.4077528 0 0 1 4.09688,-1.81221 z"
       inkscape:connector-curvature="0"
       style="fill:#ffffff;stroke:#8b8b8b;stroke-width:0.01463752px" />
    <text
       y="-98.419044"
       x="338.45816"
       id="Z-2"
       data-name="Z"
       class="cls-3"
       style="font-weight:500;font-size:50.82474518px;font-family:FuturaBT-Medium, 'Futura Md BT';fill:#ffca39;stroke:#8b8b8b;stroke-width:0.01463752px">
      <tspan
         style="stroke-width:0.01463752px"
         x="338.45816"
         y="-98.419044"
         id="tspan11">Z</tspan>
    </text>
    <path
       id="path1989"
       class="cls-4"
       d="m 181.08485,-149.23809 c -9.09154,-0.0984 -18.00579,4.84624 -23.1891,12.23535 -7.34926,10.11534 -7.07481,24.86712 0.59647,34.72997 a 29.338075,29.338075 0 0 0 18.63887,11.169242 c 6.65275,0.622097 13.7365,0.151659 19.48742,-3.597169 9.28101,-5.395553 15.37835,-16.113483 14.46106,-26.922883 -0.26997,-14.78187 -13.84344,-28.06868 -28.70907,-27.608 -0.42895,-0.01 -0.85751,-0.01 -1.28606,-0.005 z m 1.06446,5.20445 c 6.82109,-0.0431 13.3844,3.16008 17.78907,8.33282 5.30895,5.82086 7.18418,14.47489 5.0284,22.03517 -0.53386,2.11147 -1.50888,4.06598 -2.41926,6.0331 l -28.77738,0.0842 4.10665,-9.27043 -5.42768,1.19784 1.02748,-2.25012 5.34432,-1.1645 0.56517,-1.0295 -5.54518,1.24093 1.04821,-2.40502 5.51468,-1.10961 1.9228,-4.48193 -6.2616,0.024 c 0,0 -7.18703,16.19846 -10.60977,23.87869 10.96757,0.11181 22.09819,0.0382 33.06536,0.15044 -8.81017,8.970364 -25.02123,9.017935 -33.53254,-0.41757 -7.69528,-7.12644 -9.27043,-19.63503 -4.08387,-28.66882 a 7.1036728,7.1036728 0 0 0 0.43546,-0.64365 c 9.34159,0.21957 18.74417,0.23298 28.16057,0.32528 l -3.56545,8.55767 5.32317,-1.14701 -0.94656,2.27938 -5.4484,1.1954 -0.33586,1.01284 5.32847,-1.2198 -1.02463,2.35014 -5.38742,1.20841 -2.09886,4.6527 6.22461,0.10775 c 0,0 7.17157,-16.13625 10.68214,-24.01814 -10.99359,-0.11182 -22.13967,-0.0285 -33.13326,-0.1411 a 24.187293,24.187293 0 0 1 17.02995,-6.70236 z"
       inkscape:connector-curvature="0"
       style="fill:#ffca39;fill-rule:evenodd;stroke-width:0.40659794" />
    <g
       id="Gruppe_113"
       data-name="Gruppe 113"
       transform="matrix(0.40659795,0,0,0.40659795,152.32454,-148.75668)">
      <text
         id="Designed_for_the_Future"
         data-name="Designed for the Future"
         class="cls-5"
         transform="translate(159.509,136.858)"
         style="font-weight:500;font-size:25px;font-family:FuturaBT-Medium, 'Futura Md BT';fill:#ffffff">
        <tspan
           x="0"
           y="0"
           id="tspan15">Designed for the Future</tspan>
      </text>
    </g>
  </g>
</svg>
