<?xml version="1.0" encoding="UTF-8" standalone="no"?>
<!-- Created with Inkscape (http://www.inkscape.org/) -->

<svg
   xmlns:dc="http://purl.org/dc/elements/1.1/"
   xmlns:cc="http://creativecommons.org/ns#"
   xmlns:rdf="http://www.w3.org/1999/02/22-rdf-syntax-ns#"
   xmlns:svg="http://www.w3.org/2000/svg"
   xmlns="http://www.w3.org/2000/svg"
   xmlns:sodipodi="http://sodipodi.sourceforge.net/DTD/sodipodi-0.dtd"
   xmlns:inkscape="http://www.inkscape.org/namespaces/inkscape"
   width="61.182343mm"
   height="18.67684mm"
   viewBox="0 0 61.182343 18.67684"
   version="1.1"
   id="svg8"
   inkscape:version="0.92.3 (2405546, 2018-03-11)"
   sodipodi:docname="Cratexlogo.svg">
  <defs
     id="defs2" />
  <sodipodi:namedview
     id="base"
     pagecolor="#ffffff"
     bordercolor="#666666"
     borderopacity="1.0"
     inkscape:pageopacity="0.0"
     inkscape:pageshadow="2"
     inkscape:zoom="1.979899"
     inkscape:cx="140.05906"
     inkscape:cy="24.569063"
     inkscape:document-units="mm"
     inkscape:current-layer="layer1"
     showgrid="false"
     fit-margin-top="0"
     fit-margin-left="0"
     fit-margin-right="0"
     fit-margin-bottom="0"
     inkscape:window-width="1360"
     inkscape:window-height="705"
     inkscape:window-x="-8"
     inkscape:window-y="-8"
     inkscape:window-maximized="1" />
  <metadata
     id="metadata5">
    <rdf:RDF>
      <cc:Work
         rdf:about="">
        <dc:format>image/svg+xml</dc:format>
        <dc:type
           rdf:resource="http://purl.org/dc/dcmitype/StillImage" />
        <dc:title />
      </cc:Work>
    </rdf:RDF>
  </metadata>
  <g
     inkscape:label="Ebene 1"
     inkscape:groupmode="layer"
     id="layer1"
     transform="translate(-68.189767,-76.371676)">
    <g
       id="g2262"
       transform="translate(157.01407,356.28818)">
      <rect
         style="opacity:0.37900002;fill:#000000;fill-opacity:0;fill-rule:nonzero;stroke:none;stroke-width:0.1819596;stroke-linecap:round;stroke-linejoin:round;stroke-miterlimit:4;stroke-dasharray:none;stroke-opacity:1;paint-order:normal"
         id="rect1013-3"
         width="61.182343"
         height="18.67684"
         x="-88.824303"
         y="-279.9165" />
      <path
         style="opacity:1;fill:#d2082d;fill-opacity:1;fill-rule:nonzero;stroke:none;stroke-width:0.25815621;stroke-linecap:round;stroke-linejoin:round;stroke-miterlimit:4;stroke-dasharray:none;stroke-opacity:1;paint-order:normal"
         inkscape:transform-center-x="-9.6217044"
         inkscape:transform-center-y="0.42043739"
         d="m -38.866063,-264.5979 -3.26283,0.0112 4.928028,-6.54094 -4.557128,-5.77134 3.344032,0.0104 4.42204,5.7301 z"
         id="path1016-9"
         inkscape:connector-curvature="0"
         sodipodi:nodetypes="ccccccc" />
      <path
         style="opacity:1;fill:#d2082d;fill-opacity:1;fill-rule:nonzero;stroke:none;stroke-width:0.25815621;stroke-linecap:round;stroke-linejoin:round;stroke-miterlimit:4;stroke-dasharray:none;stroke-opacity:1;paint-order:normal"
         d="m -88.220423,-272.25855 v 2.23915 l 1.233553,7e-4 v -2.23791 z m 4.033144,0.006 v 2.235 l 7.421103,0.004 v -2.22739 z m 10.370411,0.0159 v 0.96329 h 2.040903 c 0.346595,0 0.625695,-0.2791 0.625695,-0.6257 v -0.33344 z m 5.518858,0.009 c -0.08585,1.02024 -0.930039,1.81775 -1.970262,1.82995 0.382323,0.0456 0.735323,0.18286 1.037941,0.38832 l 8.182001,0.004 -0.571505,-2.21219 -1.073882,-0.002 -0.0097,0.0361 -2.794748,-0.004 0.01051,-0.0361 z m 9.516334,0.0147 0.620717,2.20928 19.215154,0.01 0.123727,-0.0218 0.837625,-1.11177 -0.825458,-1.04526 -0.07258,-0.01 z"
         id="path1024-5"
         inkscape:connector-curvature="0" />
      <path
         style="opacity:1;fill:#d2082d;fill-opacity:1;fill-rule:nonzero;stroke:none;stroke-width:0.25815621;stroke-linecap:round;stroke-linejoin:round;stroke-miterlimit:4;stroke-dasharray:none;stroke-opacity:1;paint-order:normal"
         d="m -42.493851,-264.14111 -1.050656,1.39461 2.63867,-0.009 v -1.38562 z"
         id="path1036-1"
         inkscape:connector-curvature="0" />
      <path
         style="opacity:1;fill:#333333;fill-opacity:1;fill-rule:nonzero;stroke:none;stroke-width:0.25815621;stroke-linecap:round;stroke-linejoin:round;stroke-miterlimit:4;stroke-dasharray:none;stroke-opacity:1;paint-order:normal"
         d="m -29.40818,-276.899 -3.343995,0.0104 -2.264584,2.93452 1.622714,2.10297 z"
         id="path1018-7"
         inkscape:connector-curvature="0" />
      <path
         style="opacity:1;fill:#333333;fill-opacity:1;fill-rule:nonzero;stroke:none;stroke-width:0.25815621;stroke-linecap:round;stroke-linejoin:round;stroke-miterlimit:4;stroke-dasharray:none;stroke-opacity:1;paint-order:normal"
         d="m -33.420034,-270.404 -1.596725,2.14929 2.716644,3.65684 3.262846,0.0111 z"
         id="path1020-8"
         inkscape:connector-curvature="0" />
      <path
         style="opacity:1;fill:#333333;fill-opacity:1;fill-rule:nonzero;stroke:none;stroke-width:0.25815621;stroke-linecap:round;stroke-linejoin:round;stroke-miterlimit:4;stroke-dasharray:none;stroke-opacity:1;paint-order:normal"
         d="m -83.697893,-276.6832 c -1.822101,0 -3.288977,1.46687 -3.288977,3.28898 v 4.39161 c 0,1.8221 1.466876,3.28897 3.288977,3.28897 h 1.928235 c 1.822101,0 3.288974,-1.46687 3.288974,-3.28897 v -0.43008 h -2.65609 c -0.09851,0.63979 -0.647202,1.12724 -1.315398,1.12724 h -0.40243 c -0.738324,0 -1.332677,-0.59449 -1.332677,-1.33281 v -3.13829 c 0,-0.73832 0.594353,-1.33267 1.332677,-1.33267 h 0.40243 c 0.723658,0 1.307495,0.57139 1.330464,1.28926 h 2.641024 v -0.57426 c 0,-1.82211 -1.466873,-3.28898 -3.288974,-3.28898 z"
         id="path1022-7"
         inkscape:connector-curvature="0" />
      <path
         style="opacity:1;fill:#333333;fill-opacity:1;fill-rule:nonzero;stroke:none;stroke-width:0.25815621;stroke-linecap:round;stroke-linejoin:round;stroke-miterlimit:4;stroke-dasharray:none;stroke-opacity:1;paint-order:normal"
         d="m -76.766176,-276.3774 v 2.00192 1.9762 6.74011 h 2.949308 v -3.16511 h 1.987265 c 0.336692,0 0.607721,0.27103 0.607721,0.60773 v 2.5025 h 1.39e-4 0.670209 2.314904 v -1.94261 c 0.02303,-0.13252 0.03567,-0.26866 0.03567,-0.40796 0,-0.13931 -0.01265,-0.27544 -0.03567,-0.40796 v -0.10147 h -0.01977 c -0.211891,-0.96573 -1.013808,-1.70493 -2.011872,-1.82386 1.097873,-0.0129 1.978004,-0.90034 1.978004,-2.00137 v -1.9762 c 0,-1.10911 -0.892953,-2.00192 -2.002056,-2.00192 h -3.524544 -0.947391 z m 2.949308,2.40517 h 2.040903 c 0.346595,0 0.625695,0.27897 0.625695,0.62556 v 1.44784 c 0,0.34659 -0.2791,0.62569 -0.625695,0.62569 h -2.040903 z"
         id="path1026-6"
         inkscape:connector-curvature="0" />
      <path
         style="opacity:1;fill:#333333;fill-opacity:1;fill-rule:nonzero;stroke:none;stroke-width:0.25815621;stroke-linecap:round;stroke-linejoin:round;stroke-miterlimit:4;stroke-dasharray:none;stroke-opacity:1;paint-order:normal"
         d="m -64.287677,-276.3521 -1.210467,4.16461 2.794749,0.004 0.555466,-2.07851 1.136508,4.39922 h -2.312277 l 0.03525,-0.13203 -2.84673,-0.002 -1.233281,4.243 h 3.121285 l 0.461322,-1.92727 h 3.288974 l 0.387914,1.92727 h 3.14216 l -2.977649,-10.59906 z"
         id="path1028-5"
         inkscape:connector-curvature="0" />
      <path
         style="opacity:1;fill:#333333;fill-opacity:1;fill-rule:nonzero;stroke:none;stroke-width:0.25815621;stroke-linecap:round;stroke-linejoin:round;stroke-miterlimit:4;stroke-dasharray:none;stroke-opacity:1;paint-order:normal"
         d="m -58.137318,-276.51053 v 2.32375 h 2.792814 v 1.97883 l 2.94613,0.005 v -1.98339 h 2.005373 l -1.834779,-2.32375 z m 2.792814,6.508 v 4.26332 h 2.94613 v -4.2618 z"
         id="path1030-5"
         inkscape:connector-curvature="0" />
      <path
         style="opacity:1;fill:#333333;fill-opacity:1;fill-rule:nonzero;stroke:none;stroke-width:0.25815621;stroke-linecap:round;stroke-linejoin:round;stroke-miterlimit:4;stroke-dasharray:none;stroke-opacity:1;paint-order:normal"
         d="m -51.169658,-276.51053 1.793309,2.32375 h 0.424687 1.043052 v 1.41839 h 2.588628 v -1.41839 h 2.721065 2.217996 l -1.793309,-2.32375 h -0.424687 -6.352745 z m 3.261048,7.02627 v 1.36213 2.37407 h 2.588628 3.216672 l 1.788608,-2.37407 h -5.00528 v -1.36213 z"
         id="path1032-0"
         inkscape:connector-curvature="0" />
      <path
         style="opacity:1;fill:#333333;fill-opacity:1;fill-rule:nonzero;stroke:none;stroke-width:0.25815621;stroke-linecap:round;stroke-linejoin:round;stroke-miterlimit:4;stroke-dasharray:none;stroke-opacity:1;paint-order:normal"
         d="m -27.992558,-278.73931 -3.343995,0.0104 -0.959001,1.24268 h 3.313581 z"
         id="path1034-9"
         inkscape:connector-curvature="0" />
      <text
         xml:space="preserve"
         style="font-style:normal;font-variant:normal;font-weight:bold;font-stretch:normal;font-size:1.84186542px;line-height:1.25;font-family:Arial;-inkscape-font-specification:'Arial Bold';letter-spacing:0px;word-spacing:0px;opacity:1;fill:#333333;fill-opacity:1;stroke:none;stroke-width:0.12558171;"
         x="-37.190556"
         y="-286.96893"
         id="text1040-7"
         transform="scale(1.0918163,0.915905)"><tspan
           sodipodi:role="line"
           id="tspan1038-2"
           x="-37.190556"
           y="-286.96893"
           style="font-style:normal;font-variant:normal;font-weight:bold;font-stretch:normal;font-family:Arial;-inkscape-font-specification:'Arial Bold';fill:#333333;fill-opacity:1;stroke-width:0.12558171;">EXCHANGE</tspan></text>
    </g>
  </g>
</svg>
