<?xml version="1.0" encoding="UTF-8" standalone="no"?>
<svg
   xmlns:dc="http://purl.org/dc/elements/1.1/"
   xmlns:cc="http://creativecommons.org/ns#"
   xmlns:rdf="http://www.w3.org/1999/02/22-rdf-syntax-ns#"
   xmlns:svg="http://www.w3.org/2000/svg"
   xmlns="http://www.w3.org/2000/svg"
   xmlns:sodipodi="http://sodipodi.sourceforge.net/DTD/sodipodi-0.dtd"
   xmlns:inkscape="http://www.inkscape.org/namespaces/inkscape"
   width="124.151"
   height="128.291"
   viewBox="0 0 124.151 128.291"
   version="1.1"
   id="svg16"
   sodipodi:docname="blogicon.svg"
   inkscape:version="0.92.3 (2405546, 2018-03-11)">
  <metadata
     id="metadata20">
    <rdf:RDF>
      <cc:Work
         rdf:about="">
        <dc:format>image/svg+xml</dc:format>
        <dc:type
           rdf:resource="http://purl.org/dc/dcmitype/StillImage" />
      </cc:Work>
    </rdf:RDF>
  </metadata>
  <sodipodi:namedview
     pagecolor="#ffffff"
     bordercolor="#666666"
     borderopacity="1"
     objecttolerance="10"
     gridtolerance="10"
     guidetolerance="10"
     inkscape:pageopacity="0"
     inkscape:pageshadow="2"
     inkscape:window-width="751"
     inkscape:window-height="480"
     id="namedview18"
     showgrid="false"
     inkscape:zoom="0.91978392"
     inkscape:cx="19.285808"
     inkscape:cy="35.365919"
     inkscape:window-x="0"
     inkscape:window-y="0"
     inkscape:window-maximized="0"
     inkscape:current-layer="svg16" />
  <defs
     id="defs4">
    <style
       id="style2">.a{fill:#333333;}</style>
  </defs>
  <g
     transform="translate(0 26.768)"
     id="g10"
     style="fill:#35153a;fill-opacity:1">
    <path
       class="a"
       d="M140.132,109.685c-1.9-.067-10.443,4.339-10.443,4.339s1.992,24.316,5.66,42.144a20.813,20.813,0,0,1-3.666,2.449c-.317-6.118-2.071-12.017-6.7-14.348-8.357-4.209-12.413,3.862-12.072,8.062.49,6.035,4.5,9.7,8.89,9.544.308,5.906,1.064,18.986-.654,19.262-2.266.348-6.1-4.881-9.587-25.1s-3.138-29.111-2.963-31.726c.033-.49-.3-.657-.853-.6-2.409.237-9.084,4.611-9.084,4.611s2.615,40.441,8.542,54.561,19.819,2.471,23.184-10.808a48.342,48.342,0,0,0,1.343-11.9,14.877,14.877,0,0,0,3.838-2.985c1.5,7.053,3.259,13,5.278,15.759,7.147,9.762,13.074-5.055,14.12-11.331a24.379,24.379,0,0,0-.7-11.156s-1.918,20.046-5.23,14.468-8.89-53.167-8.542-54.91c.043-.218-.093-.32-.365-.33Zm-23.353,43.457c1.531.179,5.228,3.738,4.489,6.049,0,0-4.19-1.478-5.052-4.93C116,153.4,116.268,153.082,116.779,153.142Z"
       transform="translate(-98.661 -106.979)"
       id="path6"
       style="fill:#35153a;fill-opacity:1" />
    <path
       class="a"
       d="M155.168,109.539c-2.9,0-11.038,6.313-9.171,8.168,2.446,2.429-11.775-5.08-15.577,5.148-1.771,4.507-1.409,11.345-.025,17.445a14.883,14.883,0,0,1-3.718,2.655c-1.356-7.5-4.5-15.492-11.6-16.614a13.416,13.416,0,0,0-1.784-.077c-8.452.225-10.041,9.248-9.285,11.668.871,2.615-2.44,3.05-2.44,3.05,1.166,3.6-2.739,19.2,9.675,26.5,12.593,4.216,16.47-10.443,16.386-12.028a63.75,63.75,0,0,0-.915-12.286,32.366,32.366,0,0,0,3.794-2.372c1.64,6.9,4.573,12.732,7.232,12.916,5.055.348,11.156-.523,12.2-17.257s2.963,11.679,2.963,11.679c.192.534-14.747,14.815-13.022,25.306.343,11.594,13.935,17.057,21.564,2.062,4.191-7.811,2.523-22.028-.04-35.329,5.21-5.478,9.714-11.038,9.764-11.053-.478.619-6.273,6.538-9.977,9.953-2.626-13.326-6.022-25.522-5.151-29.114a.91.91,0,0,0-.877-.417ZM143.9,119.728a2.816,2.816,0,0,1,2.735,2.081c0,.365,1.267,20.918-.61,22.661-3.479,3.231-5.83-12.2-6.363-20.047a4.066,4.066,0,0,1,3.685-4.69,3.157,3.157,0,0,1,.553,0Zm-30.124,11.557c1.91-.025,4.009,1.528,5.84,6.561a54.282,54.282,0,0,1,1.95,6.7,14.75,14.75,0,0,1-10.328-.716,21.106,21.106,0,0,1,.185-6.681c1.046-3.486-3.486-1.395-3.486-1.395S110.59,131.327,113.773,131.285Zm7.937,13.888c2.164,10.28.461,18.087-4.363,14.114-3.353-2.761-5.141-8.366-5.875-13.346A25,25,0,0,0,121.71,145.173Zm31.731,5.047s6.675,28.634-2.8,29.462c-7.969.7-8.7-12.755-4.009-20.221S153.23,150.505,153.441,150.22Z"
       transform="translate(-47.623 -109.538)"
       id="path8"
       style="fill:#35153a;fill-opacity:1" />
  </g>
  <path
     class="a"
     d="M143.152,197.488c1.115,4.975,2.146,10.215,3.091,15.365,1.025-.97,2.06-2.028,3.053-3.122a64.142,64.142,0,0,0-6.145-12.243Zm9.862,27.139c-1.426,1.625-2.967,3.148-4.058,4.192,1.569,9.978,2.56,17.577,2.71,18.75a59.718,59.718,0,0,0,1.348-22.942Z"
     transform="translate(-29.405 -168.256)"
     id="path12"
     style="fill:#35153a;fill-opacity:1" />
  <path
     class="a"
     d="M196.875,195.912A64.143,64.143,0,0,0,137.028,237c4.144-2.332,10.579-4.583,16.924-1.24a49.259,49.259,0,0,1,77.58-10.786c3.365-3.622,9.295-8.5,15.381-4.955A64.145,64.145,0,0,0,196.875,195.912Zm30.607,102.857a49.216,49.216,0,0,1-57.457,2.645,25.685,25.685,0,0,1-13.968,8.062,63.917,63.917,0,0,0,88.827-7C240.309,304.365,233.1,305.636,227.482,298.768Z"
     transform="translate(-136.869 -195.912)"
     id="path14"
     style="fill:#35153a;fill-opacity:1" />
</svg>
