<?xml version="1.0" encoding="UTF-8" standalone="no"?>
<!-- Created with Inkscape (http://www.inkscape.org/) -->

<svg
   xmlns:dc="http://purl.org/dc/elements/1.1/"
   xmlns:cc="http://creativecommons.org/ns#"
   xmlns:rdf="http://www.w3.org/1999/02/22-rdf-syntax-ns#"
   xmlns:svg="http://www.w3.org/2000/svg"
   xmlns="http://www.w3.org/2000/svg"
   xmlns:sodipodi="http://sodipodi.sourceforge.net/DTD/sodipodi-0.dtd"
   xmlns:inkscape="http://www.inkscape.org/namespaces/inkscape"
   width="39.458107mm"
   height="39.52293mm"
   viewBox="0 0 39.458107 39.52293"
   version="1.1"
   id="svg855"
   inkscape:version="0.92.3 (2405546, 2018-03-11)"
   sodipodi:docname="ltzcoreicondark.svg">
  <defs
     id="defs849" />
  <sodipodi:namedview
     id="base"
     pagecolor="#ffffff"
     bordercolor="#666666"
     borderopacity="1.0"
     inkscape:pageopacity="0.0"
     inkscape:pageshadow="2"
     inkscape:zoom="0.98994949"
     inkscape:cx="-127.53429"
     inkscape:cy="2.2296013"
     inkscape:document-units="mm"
     inkscape:current-layer="layer1"
     showgrid="false"
     fit-margin-top="0"
     fit-margin-left="0"
     fit-margin-right="0"
     fit-margin-bottom="0"
     inkscape:window-width="1360"
     inkscape:window-height="705"
     inkscape:window-x="-8"
     inkscape:window-y="-8"
     inkscape:window-maximized="1" />
  <metadata
     id="metadata852">
    <rdf:RDF>
      <cc:Work
         rdf:about="">
        <dc:format>image/svg+xml</dc:format>
        <dc:type
           rdf:resource="http://purl.org/dc/dcmitype/StillImage" />
        <dc:title />
      </cc:Work>
    </rdf:RDF>
  </metadata>
  <g
     inkscape:label="Ebene 1"
     inkscape:groupmode="layer"
     id="layer1"
     transform="translate(-56.622179,-59.524269)">
    <g
       id="g12"
       transform="matrix(0.26458333,0,0,0.26458333,-1767.9442,-3720.0486)"
       style="fill:#333333">
      <path
         style="fill:#35153a;fill-opacity:1"
         inkscape:connector-curvature="0"
         id="path6"
         transform="translate(7346.578,14378.334)"
         d="m -376.039,-52.419 20.387,20.387 -20.387,46 -20.387,-46 z"
         class="a" />
      <path
         style="fill:#62276b;fill-opacity:1"
         inkscape:connector-curvature="0"
         id="path8"
         transform="translate(6947.214,14285)"
         d="m 23.3,149.378 -14.314,-32.3 8.623,-8.623 5.691,12.845 5.7,-12.842 8.623,8.623 -14.323,32.296 v 0 z M 32.571,37.345 v 0 L 23.3,28.079 14.034,37.345 0,23.3 23.3,0 46.61,23.305 32.571,37.344 Z"
         class="b" />
      <path
         style="fill:#62276b;fill-opacity:1"
         inkscape:connector-curvature="0"
         id="path10"
         transform="translate(8636.577,14546.595)"
         d="m -1675.718,-261.34 a 74.567,74.567 0 0 0 -64.86,73.854 74.565,74.565 0 0 0 70.6,74.424 l -5.273,-11.9 a 63.281,63.281 0 0 1 -54.037,-62.526 63.283,63.283 0 0 1 37.373,-57.652 z m 19.741,0.051 16.221,16.22 -0.049,0.048 a 63.281,63.281 0 0 1 37.078,57.535 63.281,63.281 0 0 1 -53.758,62.511 l -5.246,11.841 a 74.568,74.568 0 0 0 70.286,-74.352 74.567,74.567 0 0 0 -64.532,-73.8 z m -51.746,31.953 15.734,15.734 z"
         class="b" />
    </g>
  </g>
</svg>
