<?xml version="1.0" encoding="UTF-8" standalone="no"?>
<svg
   xmlns:dc="http://purl.org/dc/elements/1.1/"
   xmlns:cc="http://creativecommons.org/ns#"
   xmlns:rdf="http://www.w3.org/1999/02/22-rdf-syntax-ns#"
   xmlns:svg="http://www.w3.org/2000/svg"
   xmlns="http://www.w3.org/2000/svg"
   xmlns:sodipodi="http://sodipodi.sourceforge.net/DTD/sodipodi-0.dtd"
   xmlns:inkscape="http://www.inkscape.org/namespaces/inkscape"
   width="85.091"
   height="105.985"
   viewBox="0 0 85.091 105.985"
   version="1.1"
   id="svg20"
   sodipodi:docname="sourceicon.svg"
   inkscape:version="0.92.3 (2405546, 2018-03-11)">
  <metadata
     id="metadata24">
    <rdf:RDF>
      <cc:Work
         rdf:about="">
        <dc:format>image/svg+xml</dc:format>
        <dc:type
           rdf:resource="http://purl.org/dc/dcmitype/StillImage" />
      </cc:Work>
    </rdf:RDF>
  </metadata>
  <sodipodi:namedview
     pagecolor="#ffffff"
     bordercolor="#666666"
     borderopacity="1"
     objecttolerance="10"
     gridtolerance="10"
     guidetolerance="10"
     inkscape:pageopacity="0"
     inkscape:pageshadow="2"
     inkscape:window-width="1360"
     inkscape:window-height="705"
     id="namedview22"
     showgrid="false"
     inkscape:zoom="2.2267302"
     inkscape:cx="4.3729388"
     inkscape:cy="39.519831"
     inkscape:window-x="-8"
     inkscape:window-y="-8"
     inkscape:window-maximized="1"
     inkscape:current-layer="svg20" />
  <defs
     id="defs4">
    <style
       id="style2">.a{fill:#dcddde;}.b{fill:#1d1f23;}</style>
  </defs>
  <path
     style="fill:#35153a;fill-opacity:1"
     d="M 7 12.986328 C 3.122 12.986328 0 16.108328 0 19.986328 L 0 98.986328 C 0 102.86433 3.122 105.98633 7 105.98633 L 65.099609 105.98633 C 68.977609 105.98633 72.099609 102.86433 72.099609 98.986328 L 72.099609 19.986328 C 72.099609 16.108328 68.977609 12.986328 65.099609 12.986328 L 7 12.986328 z M 10.640625 30.128906 L 61.453125 30.128906 C 61.500215 30.128906 61.537109 30.167754 61.537109 30.214844 L 61.537109 36.134766 C 61.537109 36.181856 61.500215 36.220703 61.453125 36.220703 L 10.640625 36.220703 C 10.593535 36.220703 10.556641 36.181856 10.556641 36.134766 L 10.556641 30.214844 C 10.556641 30.167754 10.593535 30.128906 10.640625 30.128906 z M 10.640625 42.984375 L 61.453125 42.984375 C 61.500215 42.984375 61.537109 43.021269 61.537109 43.068359 L 61.537109 48.990234 C 61.537109 49.037324 61.500215 49.074219 61.453125 49.074219 L 10.640625 49.074219 C 10.593535 49.074219 10.556641 49.037324 10.556641 48.990234 L 10.556641 43.068359 C 10.556641 43.021269 10.593535 42.984375 10.640625 42.984375 z M 10.640625 55.839844 L 61.453125 55.839844 C 61.500215 55.839844 61.537109 55.876738 61.537109 55.923828 L 61.537109 61.845703 C 61.537109 61.892793 61.500215 61.929686 61.453125 61.929688 L 10.640625 61.929688 C 10.593535 61.929688 10.556641 61.892793 10.556641 61.845703 L 10.556641 55.923828 C 10.556641 55.876738 10.593535 55.839844 10.640625 55.839844 z M 10.640625 68.693359 L 61.453125 68.693359 C 61.500215 68.693359 61.537109 68.732207 61.537109 68.779297 L 61.537109 74.699219 C 61.537109 74.746309 61.500215 74.785156 61.453125 74.785156 L 10.640625 74.785156 C 10.593535 74.785156 10.556641 74.746309 10.556641 74.699219 L 10.556641 68.779297 C 10.556641 68.732207 10.593535 68.693359 10.640625 68.693359 z M 10.640625 81.548828 L 61.453125 81.548828 C 61.500215 81.548828 61.537109 81.587676 61.537109 81.634766 L 61.537109 87.554688 C 61.537109 87.601778 61.500215 87.640625 61.453125 87.640625 L 10.640625 87.640625 C 10.593535 87.640625 10.556641 87.601778 10.556641 87.554688 L 10.556641 81.634766 C 10.556641 81.587676 10.593535 81.548828 10.640625 81.548828 z "
     id="rect6" />
  <path
     inkscape:connector-curvature="0"
     class="a"
     d="m 19.818,0 a 6.813,6.813 0 0 0 -6.829,6.829 v 1.569 h 56.68 a 6.817,6.817 0 0 1 6.834,6.829 v 77.771 h 1.756 a 6.817,6.817 0 0 0 6.833,-6.829 V 6.829 A 6.817,6.817 0 0 0 78.259,0 Z"
     id="path8"
     style="fill:#35153a;fill-opacity:1" />
</svg>
