<?xml version="1.0" encoding="UTF-8" standalone="no"?>
<svg
   xmlns:dc="http://purl.org/dc/elements/1.1/"
   xmlns:cc="http://creativecommons.org/ns#"
   xmlns:rdf="http://www.w3.org/1999/02/22-rdf-syntax-ns#"
   xmlns:svg="http://www.w3.org/2000/svg"
   xmlns="http://www.w3.org/2000/svg"
   xmlns:sodipodi="http://sodipodi.sourceforge.net/DTD/sodipodi-0.dtd"
   xmlns:inkscape="http://www.inkscape.org/namespaces/inkscape"
   width="126.306"
   height="86.945"
   viewBox="0 0 126.306 86.945"
   version="1.1"
   id="svg22"
   sodipodi:docname="webwalleticon.svg"
   inkscape:version="0.92.3 (2405546, 2018-03-11)">
  <metadata
     id="metadata26">
    <rdf:RDF>
      <cc:Work
         rdf:about="">
        <dc:format>image/svg+xml</dc:format>
        <dc:type
           rdf:resource="http://purl.org/dc/dcmitype/StillImage" />
      </cc:Work>
    </rdf:RDF>
  </metadata>
  <sodipodi:namedview
     pagecolor="#ffffff"
     bordercolor="#666666"
     borderopacity="1"
     objecttolerance="10"
     gridtolerance="10"
     guidetolerance="10"
     inkscape:pageopacity="0"
     inkscape:pageshadow="2"
     inkscape:window-width="1360"
     inkscape:window-height="705"
     id="namedview24"
     showgrid="false"
     inkscape:zoom="1.3571798"
     inkscape:cx="-12.232171"
     inkscape:cy="53.799781"
     inkscape:window-x="-8"
     inkscape:window-y="-8"
     inkscape:window-maximized="1"
     inkscape:current-layer="svg22" />
  <defs
     id="defs4">
    <style
       id="style2">.a{fill:#141214;}.b{fill:#fff;}.c{fill:#1d011c;}.d{fill:#dcddde;}</style>
  </defs>
  <rect
     class="a"
     width="105.88184"
     height="84.736679"
     rx="14.000112"
     transform="rotate(-0.2291819)"
     id="rect6"
     style="fill:#190a1b;stroke-width:1.00000799;fill-opacity:1"
     x="4.8323693"
     y="0.41733265" />
  <rect
     class="b"
     width="115.365"
     height="84.736"
     rx="20"
     id="rect8"
     x="0"
     y="2.21"
     style="fill:#ffffff" />
  <path
     class="c"
     d="m 9.715,2.209 a 9.69,9.69 0 0 0 -9.713,9.71 v 65.314 a 9.69,9.69 0 0 0 9.713,9.71 h 95.94 a 9.69,9.69 0 0 0 9.713,-9.71 V 63.103 H 84.593 A 4.238,4.238 0 0 1 80.345,58.857 V 30.296 a 4.237,4.237 0 0 1 4.248,-4.246 h 30.775 V 11.92 a 9.69,9.69 0 0 0 -9.713,-9.71 z"
     id="path10"
     style="fill:#7b647f;fill-opacity:1"
     inkscape:connector-curvature="0" />
  <path
     class="d"
     d="m 9.715,2.21 a 9.75,9.75 0 0 0 -2.3,0.281 C 24.675,2.536 41.99,2.506 59.147,2.68 51.116,20.712 34.708,57.628 34.708,57.628 l -14.239,-0.245 4.8,-10.644 12.323,-2.766 2.345,-5.377 -12.191,2.79 0.77,-2.317 12.466,-2.735 2.166,-5.215 -12.173,2.627 8.153,-19.585 C 26.066,14.034 13.019,13.961 0.003,13.823 V 45.339 C 2.896,38.822 8.39,26.461 8.39,26.461 l 14.328,-0.062 -4.4,10.254 -12.617,2.533 -2.4,5.5 12.685,-2.839 -1.292,2.355 -12.227,2.665 -2.35,5.148 12.417,-2.741 -9.4,21.21 65.836,-0.192 c 2.082,-4.5 4.311,-8.971 5.532,-13.8 C 79.434,39.197 75.146,19.398 63.002,6.081 61.848,4.726 60.621,3.437 59.344,2.204 Z m 65.971,0 a 65.344,65.344 0 0 1 11.25,23.841 h 28.432 v -14.13 a 9.69,9.69 0 0 0 -9.713,-9.71 z m 9.664,60.894 a 68.413,68.413 0 0 1 -14.034,23.84 h 34.339 a 9.69,9.69 0 0 0 9.713,-9.71 v -14.13 z m -84.5,18.1 a 9.685,9.685 0 0 0 8.863,5.74 h 43.556 a 48.016,48.016 0 0 0 6.494,-5.509 C 40.235,81.236 20.483,81.286 0.852,81.204 Z"
     id="path12"
     style="fill:#35153a;fill-opacity:1"
     inkscape:connector-curvature="0" />
  <rect
     class="c"
     width="41.477001"
     height="30.465"
     rx="8"
     id="rect14"
     style="fill:#333333"
     x="84.828003"
     y="29.347" />
  <circle
     class="d"
     cx="99.715004"
     cy="44.661999"
     id="ellipse16"
     r="11.239"
     style="fill:#dcddde" />
</svg>
